<?xml version="1.0" encoding="utf-8"?>
<!-- Generator: Adobe Illustrator 16.0.4, SVG Export Plug-In . SVG Version: 6.00 Build 0)  -->
<!DOCTYPE svg PUBLIC "-//W3C//DTD SVG 1.1//EN" "http://www.w3.org/Graphics/SVG/1.1/DTD/svg11.dtd">
<svg version="1.1" id="Layer_1" xmlns="http://www.w3.org/2000/svg" xmlns:xlink="http://www.w3.org/1999/xlink" x="0px" y="0px"
	 width="130px" height="20px" viewBox="0 0 130 20" enable-background="new 0 0 130 20" xml:space="preserve">
<path fill="#FFB300" d="M69.736,1.282l-9.681,17.353h2.648l6.309-11.227c0,0,0.715-1.375,1.453-0.012
	c0.74,1.362,6.309,11.239,6.309,11.239h2.623L69.736,1.282z"/>
<g>
	<path fill="#757575" d="M57.615,1.275v2.474H46.21c0,0-0.969-0.051-0.969,1.022V8.77h9.847v2.404h-9.865v3.965
		c0,0-0.122,1.055,1.108,1.055h11.266v2.44H45.916c0,0-2.995,0.226-3.219-3.964V4.477c0,0,0.017-3.185,4.016-3.185
		C50.71,1.292,57.615,1.275,57.615,1.275"/>
	<rect x="103.495" y="1.277" fill="#757575" width="2.424" height="17.357"/>
	<path fill="#757575" d="M99.585,6.685V1.254h-2.459v4.729c0,1.426-1.168,2.583-2.608,2.583h-7.246
		c-1.438,0-2.606-1.158-2.606-2.583V1.254h-2.491v5.431c0,1.688,1.281,3.076,2.932,3.27c-1.648,0.194-2.932,1.582-2.932,3.268v5.43
		h2.458v-4.727c0-1.428,1.169-2.586,2.61-2.586h7.244c1.438,0,2.607,1.158,2.607,2.586v4.727h2.491v-5.43
		c0-1.687-1.28-3.074-2.931-3.268C98.305,9.761,99.585,8.373,99.585,6.685"/>
	<path fill="#757575" d="M125.089,5.559l2.377-0.001c0,0,0.63-4.284-3.514-4.281h-10.693c0,0-2.881-0.092-2.944,3.253v3.592
		c0,0-0.053,2.966,3.312,3.045h10.449c0,0,0.96-0.026,0.96,1.106v3.188c0,0-0.053,0.846-0.96,0.846H113.43
		c0,0-0.753-0.209-0.779-1.002c-0.024-0.795,0-1.224,0-1.224h-2.35v1.81c0,0,0.116,2.744,3.311,2.744h10.854
		c0,0,2.958,0.014,2.958-3.293v-3.98c0,0-0.168-2.535-3.36-2.535h-10.451c0,0-0.959,0.013-0.959-1.197V4.556
		c0,0,0.076-0.911,1.115-0.911h10.293c0,0,0.946,0,0.985,0.975C125.064,5.05,125.089,5.559,125.089,5.559"/>
	<path fill="#757575" d="M38.74,8.687c-0.015-3.306,0-4.24,0-4.24s-0.154-3.134-3.858-3.134c-3.704,0-12.294,0.017-12.294,0.017
		v17.359h2.457v-6.611h6.705l3.633,6.611h3.15l-3.599-6.578C34.934,12.111,38.758,11.99,38.74,8.687 M36.188,5.475v2.423
		c0,1.749-1.264,1.697-1.264,1.697h-9.898V3.762l9.898-0.017C36.248,3.85,36.188,5.475,36.188,5.475"/>
	<path fill="#757575" d="M18.658,14.299h-2.411c-0.014,2.244-1.337,2.045-1.337,2.045H6.161c-1.207,0-1.233-1.771-1.233-1.771
		L4.915,5.458c0,0,0.026-1.771,1.233-1.771h8.749c0,0,1.323-0.196,1.336,2.047h2.413c0,0,0.625-4.447-3.814-4.447H5.629
		c0,0-3.129-0.158-3.129,4.381s0.014,6.366,0.014,8.693c0,4.539,3.129,4.383,3.129,4.383h9.203
		C19.284,18.745,18.658,14.299,18.658,14.299"/>
</g>
</svg>
