<?xml version="1.0" encoding="utf-8"?>
<!-- Generator: Adobe Illustrator 16.0.4, SVG Export Plug-In . SVG Version: 6.00 Build 0)  -->
<!DOCTYPE svg PUBLIC "-//W3C//DTD SVG 1.1//EN" "http://www.w3.org/Graphics/SVG/1.1/DTD/svg11.dtd">
<svg version="1.1" id="Layer_1" xmlns="http://www.w3.org/2000/svg" xmlns:xlink="http://www.w3.org/1999/xlink" x="0px" y="0px"
	 width="200px" height="100px" viewBox="0 0 200 100" enable-background="new 0 0 200 100" xml:space="preserve">
<g>
	<g>
		<path d="M73.382,36.049c0.75,0,1.356-1.056,1.356-2.359c0-1.31-0.606-2.372-1.356-2.372c-0.752,0-1.359,1.062-1.359,2.372
			C72.023,34.993,72.63,36.049,73.382,36.049"/>
		<path d="M54.997,52.107v-7.855c0-0.847,0.945-0.991,1.425-0.994c0.625-0.01,1.259-0.013,1.887-0.013
			c4.572,0,6.523,2.77,6.523,5.359c0,4.054-4.387,5.884-8.083,5.409l-0.005-0.004c-0.08-0.006-0.108,0.037-0.114,0.072
			c-0.015,0.062,0.053,0.124,0.199,0.163c0.004,0.004,0.013,0.006,0.013,0.006c3.889,1.011,10.829-0.56,10.829-6.076
			c0-3.076-2.377-5.076-5.562-5.937c2.492-0.87,3.777-2.949,3.777-4.617c0-5.552-8.503-5.428-13.535-5.024v21.168
			c0,0.85-0.119,1.866-0.402,2.59C53.808,55.821,54.997,54.844,54.997,52.107 M54.91,34.27c0-0.642,0.159-0.821,0.559-0.929
			c0.363-0.143,0.962-0.215,1.844-0.215c3.046,0,5.97,1.324,5.97,4.829c0,3.359-2.204,4.431-6.291,4.578
			c-2.042,0.069-2.083,0-2.083-1.003V34.27z"/>
		<path d="M97.999,34.413c-2.156,0-7.066,1.017-7.066,7.735c0,4.672,2.511,7.816,7.374,7.816c1.238,0,2.512-0.267,3.783-0.798
			c0.021-0.003,0.043-0.01,0.061-0.023c0.005,0,0.007,0,0.01-0.003v-0.003c0.046-0.033,0.075-0.078,0.075-0.137
			c0-0.095-0.083-0.173-0.185-0.173c-0.018,0-0.03,0.003-0.043,0.007l-0.004-0.003c-0.579,0.15-1.21,0.312-1.917,0.329
			c-3.62,0.071-6.849-1.648-7.076-6.494c-0.017-0.358,0.12-0.541,0.571-0.541l10.926,0.004l0.031-0.333
			C104.569,41.477,104.372,34.413,97.999,34.413 M101.929,41.405h-8.472c-0.349,0-0.408-0.206-0.408-0.342
			c-0.009-2.138,1.37-5.953,4.839-5.953c2.89,0,4.095,2.395,4.422,4.308C102.46,40.31,102.688,41.405,101.929,41.405"/>
		<path d="M140.265,43.336c-1.514,0.73-3.858,1.463-5.76,2.519c-1.295,0.721-2.168,1.961-2.168,3.643
			c0,5.093,7.39,4.203,8.807,3.577l0.025-0.014c0.058-0.041,0.083-0.067,0.083-0.123c0-0.081-0.062-0.166-0.153-0.149
			c-0.004,0-0.021,0.006-0.021,0.006c-2.536,0.902-6.358-0.375-6.358-3.828c0-3.112,4.062-4.189,6.939-5.216
			c0.468-0.166,1.02-0.326,1.03,0.26c0.035,3.03,0.002,8.934,0.002,9.29c0,2.664,2.664,4.017,3.969,4.192
			c-1.06-0.867-1.491-1.821-1.491-3.212V41.232c0-3.594-1.398-5.822-5.405-5.822c-3.324,0-4.927,1.091-5.657,1.782
			c-1.111,0.948-1.554,2.297-0.808,3.102c0.417,0.446,1.146,0.465,1.545,0.124c0.23-0.195,0.273-0.395,0.254-0.697
			c-0.062-0.834,0.04-1.613,0.762-2.42c0.881-0.828,1.952-1.242,2.806-1.242c2.854-0.084,4.024,1.838,4.024,3.926
			C142.688,42.239,141.713,42.639,140.265,43.336"/>
		<path d="M112.765,50.387c1.092,0,2.652-0.183,3.924-1.029c1.201-0.805,1.859-2.059,1.912-3.617c0.107-2.88-2.571-3.747-4.93-4.503
			c-2.146-0.69-3.999-1.492-3.999-3.3c0-1.753,1.468-2.766,2.95-2.903c2.457-0.234,4.629,0.945,4.704,0.975
			c0.17,0.068,0.355-0.062,0.355-0.228c0-0.095-0.036-0.176-0.148-0.254l-0.305-0.17c-0.937-0.501-2.73-0.896-4.075-0.896
			c-2.972,0-5.031,1.668-5.031,4.463c0,2.757,2.652,3.601,4.996,4.34c2.07,0.651,3.863,1.86,3.863,3.486
			c0,3.881-5.391,3.08-5.391,3.08c-1.592-0.127-3.015-0.815-3.774-1.3l-0.004,0.003c-0.035-0.022-0.08-0.039-0.127-0.039
			c-0.124,0-0.228,0.091-0.228,0.205c0,0.065,0.035,0.121,0.088,0.16C108.702,49.788,110.749,50.387,112.765,50.387"/>
		<path d="M147.992,60.927c-12.338-4.899-29.736-7.597-48.99-7.597c-8.478,0-16.624,0.518-24.266,1.543
			c-0.268,0-0.352-0.208-0.374-0.935c0.017-0.977,0.026-1.987,0.026-3.036c0-5.536-0.273-12.002-1.04-12.002
			c-0.768,0-1.041,6.467-1.041,12.002c0,1.107,0.01,2.179,0.028,3.199l-0.011,0.149c-0.027,0.434-0.064,0.978-0.823,1.102
			c-8.227,1.301-15.459,3.177-21.496,5.574c-0.043,0.018-0.065,0.066-0.051,0.108c0.016,0.042,0.062,0.071,0.105,0.059
			c6.798-1.86,20.529-4.355,21.624-4.379c0.513,0,0.724,0.176,0.724,0.606c0.333,4.636,0.646,6.987,0.939,6.987
			c0.546,0,0.809-3.951,0.929-7.255c0.091-0.583,0.347-0.639,0.732-0.724l0.111-0.022c0.317-0.068,15.756-1.435,23.882-1.435
			c16.877,0,34.259,2.21,48.937,6.221c0.046,0.013,0.09-0.017,0.104-0.059S148.034,60.944,147.992,60.927"/>
		<path d="M130.268,36.833c0-0.205-0.107-0.333-0.319-0.375c-0.022-0.003-0.042-0.006-0.062-0.01c-0.006,0-0.016,0-0.023,0
			c-0.002,0-0.01-0.003-0.013-0.003h-0.007c-0.025,0-0.052-0.003-0.079-0.003H126.3c-0.107-0.017-0.145-0.085-0.145-0.192v-5.083
			l-2.4,1.121l-0.016,3.834v0.088c0,0.15-0.076,0.215-0.163,0.231h-2.128c-0.137,0-0.502,0-0.502,0.391
			c0,0.261,0.169,0.395,0.502,0.395h2.224c0.076,0.026,0.083,0.111,0.083,0.111l-0.007,10.931c0,3.451,2.121,4.217,4.054,4.513l0,0
			c0.008,0,0.016,0.003,0.024,0.003c0.088,0,0.157-0.068,0.157-0.153c0-0.068-0.045-0.123-0.11-0.144l0.002-0.002
			c-1.575-0.642-1.72-1.861-1.72-3.112V37.342c0-0.062,0.016-0.108,0.089-0.111h3.606c0.043,0,0.101-0.013,0.164-0.04
			C130.184,37.137,130.268,37.02,130.268,36.833"/>
		<path d="M87.641,27.721c-2.777,0-4.349,2.062-5.051,3.74c-0.673,1.648-0.869,3.392-0.869,5.096c0,0.228,0.009,0.494-0.242,0.494
			H79.25c-0.01,0-0.023,0.004-0.036,0.004c-0.16,0.006-0.45,0.042-0.45,0.391c0,0.261,0.168,0.395,0.5,0.395h2.263
			c0.192,0.023,0.212,0.127,0.212,0.443l0.009,13.385c1.038-0.101,2.069-0.606,2.069-2.431V38.319h0
			c0-0.267-0.005-0.463,0.267-0.479h3.396c0.335,0,0.504-0.134,0.504-0.395c0-0.237-0.144-0.368-0.427-0.384
			c-0.022-0.006-0.041-0.01-0.061-0.01H84c-0.242,0-0.204-0.325-0.204-0.817v-0.736c0-1.473,0.112-3.623,0.617-4.979
			c0.42-1.059,1.123-1.619,1.993-1.619c0.926,0,1.708,0.646,2.241,1.297c0.198,0.235,0.368,0.352,0.674,0.352
			c0.534,0,1.067-0.472,1.067-1.062C90.388,28.428,89.126,27.721,87.641,27.721"/>
	</g>
	<g>
		<path d="M86.871,66.411c-0.209,0-0.232,0.159-0.232,0.198c0,0.059,0.031,0.117,0.057,0.152c0.049,0.06,0.323,0.32,0.374,0.392
			c0.247,0.288,0.276,0.323,0.38,0.323c0.158,0,0.284-0.134,0.284-0.274C87.734,66.949,86.956,66.411,86.871,66.411"/>
		<path d="M86.104,66.821c-0.205,0-0.23,0.163-0.23,0.205c0,0.075,0.033,0.108,0.091,0.17c0.139,0.14,0.25,0.254,0.449,0.527
			c0.167,0.216,0.199,0.268,0.316,0.268c0.176,0,0.305-0.14,0.305-0.3C87.035,67.45,86.215,66.821,86.104,66.821"/>
		<path d="M86.656,72.862c-0.094,0-0.507,0.097-0.607,0.11c-0.484,0.092-0.983,0.11-1.963,0.11c-1.466,0-1.766-0.084-1.766-0.862
			v-2.072c0.205-0.014,1.487-0.167,3.16-0.662c0.895-0.264,1.119-0.335,1.119-0.642c0-0.226-0.194-0.424-0.45-0.424
			c-0.144,0-0.213,0.036-0.546,0.208c-1.334,0.698-2.76,0.938-3.283,1.021V67.3c0-0.173,0-0.491-0.463-0.491
			c-0.468,0-0.468,0.326-0.468,0.501v4.842c0,1.379,0.618,1.379,2.991,1.379c1.123,0,1.556-0.007,2.059-0.06
			c0.241-0.025,0.489-0.049,0.489-0.322C86.927,72.982,86.796,72.862,86.656,72.862"/>
		<path d="M94.219,67.316h-4.966c-0.1,0-0.309,0-0.309,0.234c0,0.223,0.219,0.223,0.309,0.223h4.286c0.216,0,0.307,0.156,0.307,0.31
			c0,0.169-0.27,1.403-0.923,2.439c-1.045,1.681-2.571,2.177-3.272,2.369c-0.425,0.116-0.507,0.153-0.507,0.306
			c0,0.102,0.058,0.219,0.217,0.219c0.08,0,1.917-0.245,3.347-1.446c1.71-1.447,2.183-3.761,2.183-3.988
			C94.889,67.643,94.644,67.316,94.219,67.316"/>
		<path d="M101.183,72.888h-2.26v-3.457h1.709c0.199,0,0.297-0.077,0.297-0.23s-0.098-0.232-0.297-0.232H96.45
			c-0.083,0-0.297,0-0.297,0.232c0,0.153,0.1,0.23,0.297,0.23h1.725v3.457h-2.25c-0.081,0-0.297,0-0.297,0.232
			c0,0.152,0.1,0.23,0.297,0.23h5.258c0.197,0,0.297-0.078,0.297-0.23C101.479,72.967,101.38,72.888,101.183,72.888"/>
		<path d="M108.78,71.953c-0.051-0.046-0.705-0.629-1.997-1.32c0.67-0.94,1.284-2.254,1.284-2.651c0-0.208-0.157-0.561-0.6-0.561
			h-4.217c-0.101,0-0.3,0-0.3,0.219c0,0.224,0.199,0.224,0.3,0.224h3.488c0.198,0,0.239,0.134,0.239,0.22
			c0,0.247-0.752,3.453-3.979,4.626c-0.459,0.166-0.498,0.183-0.498,0.339c0,0.123,0.102,0.225,0.217,0.225
			c0.065,0,0.699-0.189,1.321-0.463c1.496-0.665,2.209-1.515,2.442-1.798c0.679,0.459,1.314,1.003,1.801,1.665
			c0.355,0.472,0.399,0.521,0.616,0.521c0.314,0,0.495-0.283,0.495-0.488C109.395,72.5,109.279,72.402,108.78,71.953"/>
		<path d="M116.018,67.857h-2.972c0.041-0.075,0.267-0.515,0.267-0.73c0-0.299-0.3-0.442-0.532-0.442
			c-0.364,0-0.432,0.238-0.525,0.564c-0.404,1.527-1.18,2.28-1.826,2.732c-0.251,0.18-0.276,0.189-0.276,0.304
			c0,0.14,0.12,0.24,0.224,0.24c0.138,0,0.501-0.24,0.665-0.361c1.089-0.739,1.516-1.427,1.773-1.854h2.488
			c0.268,0,0.268,0.231,0.268,0.286c0,0.264-0.309,1.521-0.915,2.386c-0.029-0.439-2.039-1.382-2.232-1.382
			c-0.122,0-0.234,0.107-0.234,0.245c0,0.12,0.059,0.155,0.186,0.228c0.464,0.283,0.864,0.524,1.353,1.107
			c0.268,0.322,0.307,0.371,0.506,0.381c-1.352,1.313-2.897,1.538-3.485,1.629c-0.233,0.033-0.373,0.05-0.373,0.252
			c0,0.097,0.073,0.237,0.237,0.237c0.079,0,0.175-0.017,0.349-0.039c1.065-0.17,2.553-0.476,3.695-1.467
			c1.646-1.417,1.957-3.736,1.957-3.766C116.612,68.232,116.5,67.857,116.018,67.857"/>
	</g>
</g>
</svg>
