<?xml version="1.0" encoding="utf-8"?>
<!-- Generator: Adobe Illustrator 16.0.4, SVG Export Plug-In . SVG Version: 6.00 Build 0)  -->
<!DOCTYPE svg PUBLIC "-//W3C//DTD SVG 1.1//EN" "http://www.w3.org/Graphics/SVG/1.1/DTD/svg11.dtd">
<svg version="1.1" id="Layer_1" xmlns="http://www.w3.org/2000/svg" xmlns:xlink="http://www.w3.org/1999/xlink" x="0px" y="0px"
	 width="200px" height="100px" viewBox="0 0 200 100" enable-background="new 0 0 200 100" xml:space="preserve">
<g>
	<path d="M150.4,58.113h4.767l-4.917-16.226h-6.769l-4.918,16.226h4.767l0.869-3.003h5.333L150.4,58.113z M145.229,51.503
		l1.623-5.607h0.026l1.622,5.607H145.229z"/>
	<path d="M68.625,58.404c4.894,0,7.256-0.86,7.592-5.275c0.08-1.052,0.097-2.13,0.097-3.128s-0.017-2.078-0.097-3.13
		c-0.335-4.415-2.699-5.275-7.592-5.275c-4.896,0-7.258,0.86-7.594,5.275c-0.079,1.052-0.095,2.13-0.095,3.13
		c0.001,0.998,0.016,2.076,0.095,3.128C61.367,57.544,63.729,58.404,68.625,58.404 M65.547,50.001c0-0.893,0.021-1.42,0.041-1.811
		c0.125-2.504,1.113-2.796,3.037-2.796c1.921,0,2.911,0.291,3.036,2.796c0.02,0.391,0.041,0.918,0.041,1.811
		c0,0.892-0.021,1.419-0.041,1.811c-0.125,2.504-1.115,2.797-3.036,2.797c-1.922,0-2.912-0.293-3.037-2.797
		C65.568,51.42,65.547,50.893,65.547,50.001"/>
	<polygon points="44.833,41.887 44.833,45.933 49.682,45.933 49.682,58.113 54.536,58.113 54.536,45.933 59.386,45.933 
		59.386,41.887 	"/>
	<rect x="114.686" y="41.887" width="4.604" height="16.226"/>
	<polygon points="100.761,47.812 100.761,41.888 96.182,41.888 96.182,58.113 100.761,58.113 100.761,51.857 106.08,51.857 
		106.08,58.113 110.66,58.113 110.66,41.888 106.08,41.888 106.08,47.812 	"/>
	<path d="M134.438,49.635c2.038-0.522,2.635-1.743,2.635-3.501c0-3.566-2.243-4.246-5.433-4.246h-8.269v16.225h8.68
		c3.996,0,5.339-1.717,5.339-4.365C137.39,51.901,136.966,50.273,134.438,49.635 M127.949,51.449h3.175
		c1.284,0,1.552,0.562,1.552,1.477s-0.503,1.478-1.552,1.478h-3.175V51.449z M127.949,45.597h3.175c0.83,0,1.341,0.394,1.341,1.339
		c0,0.809-0.507,1.309-1.341,1.309h-3.175V45.597z"/>
	<path d="M78.981,52.79h4.364c0.004,0.786,0.105,1.314,0.486,1.604c0.435,0.326,0.825,0.434,2.113,0.434c1.24,0,2.601,0,2.601-1.527
		c0-1.206-0.758-1.481-2.162-1.556c-3.478-0.185-4.735-0.284-6.032-1.247c-0.881-0.654-1.34-1.933-1.34-3.659
		c0-2.938,1.026-3.968,2.503-4.686c1.525-0.742,7.512-0.742,9.124,0c2.027,0.934,2.086,2.954,2.086,4.828h-4.354
		c-0.009-0.956-0.224-1.223-0.4-1.405c-0.452-0.398-1.095-0.486-2.026-0.486c-1.125,0-2.427,0.056-2.427,1.417
		c0,1.04,0.45,1.48,1.635,1.555c1.625,0.104,4.829,0.207,5.97,0.882c1.603,0.947,2.015,2.229,2.015,4.318
		c0,3.021-1.081,3.909-2.583,4.574c-1.735,0.766-7.535,0.766-9.421-0.06C79.023,56.857,78.981,55.022,78.981,52.79"/>
</g>
</svg>
