<?xml version="1.0" encoding="utf-8"?>
<!-- Generator: Adobe Illustrator 16.0.4, SVG Export Plug-In . SVG Version: 6.00 Build 0)  -->
<!DOCTYPE svg PUBLIC "-//W3C//DTD SVG 1.1//EN" "http://www.w3.org/Graphics/SVG/1.1/DTD/svg11.dtd">
<svg version="1.1" id="Layer_1" xmlns="http://www.w3.org/2000/svg" xmlns:xlink="http://www.w3.org/1999/xlink" x="0px" y="0px"
	 width="200px" height="100px" viewBox="0 0 200 100" enable-background="new 0 0 200 100" xml:space="preserve">
<g id="canon">
	<g>
		<path d="M65.352,42.233c-4.811-2.918-9.129-0.441-9.83-0.021s-4.415,2.896-4.298,7.799c0.116,4.927,3.97,9.06,9.691,9.085
			c5.184,0.023,7.684-4.443,7.684-4.443l0.375,1.594c0,0-3.69,5.348-12.38,5.348c-7.565,0-14.215-4.625-14.205-11.908
			c0.008-5.934,5.449-11.279,14.368-11.279c8.922,0,12.867,6.326,12.867,6.326l-9.105,5.279L65.352,42.233z"/>
		<path d="M88.332,46.856l3.899,14.062H85.46l-0.984-3.457c-0.791,1.119-3.127,3.711-7.259,3.711c-3.693,0-7.076-2.051-7.076-6.094
			c0-3.762,3.724-5.754,6.736-5.754c3.618,0,5.874,1.903,5.874,1.903l-1.446-5.35h-9.25l7.849-2.801
			C84.035,41.555,87.281,43.122,88.332,46.856 M80.276,58.617c1.879,0,3.401-1.496,3.401-3.34c0-1.842-1.521-3.334-3.401-3.334
			c-1.878,0-3.403,1.492-3.403,3.334C76.873,57.121,78.396,58.617,80.276,58.617"/>
		<path d="M101.262,47.528v13.421H94.37V45.781h-4.518l5.954-2.857c3.455-1.625,5.479,0.99,5.479,2.228l4.75-2.17
			c3.061-1.448,5.615,0.142,5.615,3.479v14.489h-7.006V47.53c0-0.934-0.76-1.692-1.692-1.692
			C102.018,45.836,101.262,46.596,101.262,47.528"/>
		<path d="M113.699,51.924c0-5.267,4.347-9.537,9.707-9.537c5.363,0,9.71,4.271,9.71,9.537c0,5.27-4.347,9.541-9.71,9.541
			C118.046,61.465,113.699,57.193,113.699,51.924 M123.799,45.213c-0.296-1.12-1.441-1.787-2.562-1.49
			c-1.116,0.295-1.783,1.443-1.488,2.562l3.271,12.353c0.295,1.117,1.438,1.783,2.561,1.488c1.12-0.293,1.783-1.441,1.488-2.561
			L123.799,45.213z"/>
		<path d="M143.907,47.528v13.421h-6.896V45.781h-4.52l5.958-2.857c3.452-1.625,5.478,0.99,5.478,2.228l4.752-2.17
			c3.059-1.448,5.612,0.142,5.612,3.479v14.489h-7.005V47.53c0-0.934-0.76-1.692-1.691-1.692
			C144.66,45.836,143.907,46.596,143.907,47.528"/>
	</g>
</g>
<g id="Layer_1_1_">
</g>
</svg>
