<?xml version="1.0" encoding="utf-8"?>
<!-- Generator: Adobe Illustrator 16.0.4, SVG Export Plug-In . SVG Version: 6.00 Build 0)  -->
<!DOCTYPE svg PUBLIC "-//W3C//DTD SVG 1.1//EN" "http://www.w3.org/Graphics/SVG/1.1/DTD/svg11.dtd">
<svg version="1.1" xmlns="http://www.w3.org/2000/svg" xmlns:xlink="http://www.w3.org/1999/xlink" x="0px" y="0px" width="200px"
	 height="100px" viewBox="0 0 200 100" enable-background="new 0 0 200 100" xml:space="preserve">
<g id="Layer_1">
	<g id="ChavxW_1_">
		<g>
			<path fill="none" d="M47.388,83.966c0-19.928,0-39.856,0-59.799c35.06,0,70.129,0,105.225,0c0,19.923,0,39.861,0,59.799
				C117.552,83.966,82.474,83.966,47.388,83.966z M111.078,34.941c0.232-0.334,0.548-0.689,0.055-1.026
				c-0.155-0.106-0.457-0.114-0.641-0.04c-0.33,0.131-0.391,0.436-0.273,0.768c-0.154-0.022-0.307-0.061-0.462-0.066
				c-0.36-0.011-0.662,0.17-0.635,0.52c0.017,0.21,0.277,0.5,0.49,0.573c0.326,0.111,0.602-0.098,0.682-0.458
				c0.032-0.149,0.01-0.31,0.013-0.466c0.265,0.059,0.529,0.119,0.793,0.178c-0.046,0.062-0.088,0.127-0.138,0.187
				c-0.231,0.275-0.188,0.573,0.08,0.737c0.184,0.112,0.508,0.137,0.698,0.05c0.15-0.071,0.275-0.377,0.267-0.571
				c-0.016-0.344-0.298-0.451-0.62-0.426C111.283,34.906,111.182,34.926,111.078,34.941z M107.809,37.597
				c-0.035,0.067-0.082,0.13-0.105,0.201c-0.153,0.483-0.038,0.778,0.332,0.865c0.378,0.088,0.702-0.121,0.744-0.481
				c0.045-0.392-0.167-0.58-0.691-0.598c-0.101-0.003-0.203,0.021-0.306,0.033c0.292-0.255,0.515-0.568,0.219-0.912
				c-0.129-0.151-0.47-0.236-0.672-0.184c-0.37,0.095-0.486,0.413-0.367,0.79c-0.377-0.062-0.758-0.147-1.056,0.201
				c0.101-0.587,0.285-1.174,0.292-1.762c0.024-2.314-0.002-4.629-0.019-6.944c-0.002-0.18-0.068-0.359-0.104-0.54
				c-0.085-0.004-0.169-0.009-0.253-0.013c-0.053,0.27-0.149,0.54-0.15,0.81c-0.01,2.108-0.087,4.219,0.029,6.319
				c0.1,1.793-0.657,2.922-2.204,3.652c-0.516,0.244-1.024,0.504-1.532,0.768c-0.238,0.124-0.464,0.271-0.694,0.408
				c0.844-0.284,1.645-0.639,2.45-0.983c0.878-0.374,1.639-0.892,2.18-1.697c-0.14,0.342-0.026,0.643,0.285,0.759
				c0.196,0.073,0.567,0.032,0.679-0.106c0.147-0.182,0.12-0.507,0.167-0.771C107.29,37.473,107.55,37.535,107.809,37.597z
				 M107.935,31.771c0.279,0.103,0.56,0.207,0.839,0.309c-0.053,0.143-0.177,0.307-0.142,0.423c0.065,0.221,0.181,0.516,0.354,0.589
				c0.178,0.075,0.493-0.024,0.67-0.153c0.114-0.083,0.165-0.386,0.109-0.542c-0.117-0.329-0.402-0.442-0.75-0.334
				c0.043-0.175,0.161-0.375,0.113-0.518c-0.073-0.215-0.241-0.524-0.408-0.55c-0.219-0.036-0.508,0.124-0.7,0.281
				c-0.099,0.078-0.047,0.338-0.063,0.516c-0.176-0.032-0.36-0.112-0.528-0.086c-0.338,0.053-0.633,0.264-0.525,0.625
				c0.062,0.214,0.345,0.47,0.562,0.507c0.329,0.056,0.594-0.191,0.618-0.552C108.095,32.118,107.988,31.943,107.935,31.771z
				 M69.687,55.064c0.045-0.012,0.091-0.023,0.137-0.034c0.088,0.144,0.199,0.278,0.264,0.433c0.415,0.979,0.823,1.961,1.229,2.945
				c0.375,0.911,0.665,1.868,1.129,2.731c1.531,2.845,3.813,4.625,7.157,4.776c0.308,0.015,0.62-0.035,0.809-0.048
				c-0.271-0.354-0.464-0.806-0.806-1.018c-0.922-0.566-1.575-1.366-2.109-2.258c-0.668-1.112-1.281-2.261-1.862-3.421
				c-0.728-1.453-1.562-2.818-2.785-3.916c-0.105-0.094-0.174-0.229-0.293-0.391c0.329-0.123,0.596-0.211,0.853-0.323
				c2.985-1.298,2.998-5.035,1.716-6.519c-1.11-1.284-2.432-1.941-4.166-1.859c-1.66,0.08-3.328,0.02-4.992,0.024
				c-0.177,0-0.354,0.025-0.516,0.036c0.438,5.083,0.329,10.133,0.142,15.221c0.499-0.004,0.798,0.215,0.803,0.704
				c1.109,0,2.161,0,3.291,0C69.687,59.751,69.687,57.408,69.687,55.064z M104.588,62.052c-0.003,0.048-0.005,0.095-0.007,0.143
				c1.635,0,3.27,0.002,4.904-0.002c0.129,0,0.258-0.026,0.386-0.048c2.487-0.408,4.104-1.913,5.066-4.151
				c0.755-1.751,0.85-3.592,0.701-5.497c-0.267-3.43-3.487-6.886-7.589-6.461c-1.083,0.112-2.179,0.109-3.268,0.123
				c-0.485,0.006-0.97-0.078-1.467-0.122c0.507,5.166,0.254,10.277,0.327,15.381c0.051-0.027,0.102-0.054,0.152-0.081
				C104.06,61.574,104.323,61.813,104.588,62.052z M129.097,62.026c-0.266-0.838-0.36-8.857-0.114-9.858
				c0.162,0.345,0.298,0.611,0.414,0.886c0.957,2.246,1.833,4.532,2.886,6.732c0.972,2.03,2.303,2.601,4.483,2.134
				c0.01-0.189,0.029-0.391,0.028-0.592c-0.024-4.319-0.057-8.638-0.07-12.957c-0.001-0.502,0.099-1.005,0.152-1.531
				c-0.202-0.029-0.475-0.068-0.808-0.117c0.075-0.247,0.134-0.44,0.196-0.645c-1.582-0.062-1.587-0.062-1.565,1.424
				c0.037,2.653,0.081,5.308,0.119,7.961c0.003,0.215-0.02,0.432-0.029,0.647c-0.254-0.228-0.375-0.475-0.481-0.729
				c-1.042-2.465-2.058-4.942-3.134-7.393c-0.501-1.141-1.422-2.312-3.037-1.957c-0.3,0.065-0.622,0.012-0.934,0.038
				c-0.34,0.028-0.678,0.083-1.016,0.128c0.658,0.577,0.759,1.229,0.746,1.972c-0.04,2.549-0.034,5.1-0.052,7.65
				c-0.012,1.587-0.046,3.175-0.04,4.762c0.002,0.25,0.106,0.54,0.258,0.741c0.177,0.234,0.457,0.392,0.692,0.583
				c-0.022,0.039-0.046,0.079-0.068,0.119C128.16,62.026,128.597,62.026,129.097,62.026z M59.461,55.016
				c2.173,0.447,3.92-0.259,4.981-1.976c0.895-1.447,0.926-3.527,0.02-4.73c-1.025-1.359-2.338-2.162-4.121-2.114
				c-1.819,0.049-3.639,0.01-5.458,0.012c-0.125,0-0.251,0.026-0.371,0.041c0.078,0.726,0.203,1.418,0.219,2.112
				c0.061,2.678,0.104,5.356,0.12,8.034c0.009,1.482-0.056,2.965-0.078,4.447c-0.004,0.271-0.072,0.561,0.293,0.724
				c0.262,0.118,0.475,0.349,0.78,0.581c0.972,0,2.072,0,3.235,0c-0.453-2.595-0.325-5.127-0.346-7.663c0.542,0,0.967,0,1.392,0
				c0.013,0.041,0.026,0.082,0.04,0.123C59.957,54.729,59.748,54.85,59.461,55.016z M124.822,60.336
				c0.038-0.546,0.062-0.911,0.099-1.435c-1.186,1.288-2.566,1.35-3.984,1.35c-0.062-0.208-0.144-0.356-0.146-0.504
				c-0.027-1.638-0.041-3.275-0.058-4.913c-0.005-0.406,0.258-0.55,0.603-0.564c0.52-0.021,1.04-0.012,1.561-0.016
				c1.044-0.006,1.216-0.173,1.295-1.26c-0.239-0.013-0.479-0.025-0.751-0.039c0.035-0.266,0.062-0.462,0.095-0.707
				c-0.937,0-1.832,0-2.78,0c0-1.202-0.01-2.342,0.002-3.481c0.009-0.849,0.149-0.985,0.992-1.047c1.29-0.094,2.51,0.05,3.485,1.076
				c-0.12-0.854,0.311-1.839-0.748-2.339c-0.129-0.659-0.629-0.555-1.096-0.547c-2.207,0.035-4.416,0.062-6.624,0.097
				c-0.092,0.001-0.183,0.06-0.219,0.072c0.072,1.006,0.19,1.962,0.203,2.919c0.049,3.796,0.064,7.593,0.093,11.389
				c0.003,0.427-0.121,0.918,0.549,0.992c0.076,0.009,0.11,0.227,0.202,0.297c0.185,0.139,0.396,0.341,0.598,0.344
				c2.185,0.028,4.369,0.018,6.554,0.03c0.378,0.002,0.598-0.156,0.658-0.514c0.095-0.558,0.166-1.12,0.262-1.783
				C125.358,59.966,125.156,60.104,124.822,60.336z M81.665,60.399c-0.047-0.352-0.114-0.652-0.119-0.952
				c-0.019-1.326-0.022-2.653-0.029-3.98c-0.006-1.015,0.036-1.057,1.043-1.063c0.52-0.004,1.04-0.002,1.56-0.007
				c0.432-0.004,0.664-0.267,0.775-0.646c0.055-0.187,0.053-0.389,0.077-0.593c-0.284-0.034-0.503-0.062-0.739-0.092
				c0.017-0.259,0.03-0.47,0.042-0.666c-0.938,0-1.809,0-2.734,0c0-1.249-0.011-2.441,0.004-3.632
				c0.009-0.701,0.166-0.852,0.885-0.899c1.314-0.086,2.592-0.029,3.597,1.075c-0.266-0.798,0.376-1.845-0.758-2.326
				c-0.138-0.702-0.677-0.571-1.16-0.559c-1.845,0.048-3.69,0.102-5.535,0.138c-0.428,0.008-0.856-0.047-1.207-0.067
				c0.071,1.727,0.183,3.383,0.202,5.042c0.034,3.042,0.006,6.085,0.022,9.127c0.003,0.491-0.253,1.159,0.628,1.226
				c0.046,0.003,0.113,0.114,0.119,0.18c0.042,0.508,0.401,0.44,0.745,0.438c1.353-0.008,2.706-0.014,4.058-0.006
				c0.78,0.004,1.56,0.03,2.339,0.06c0.364,0.015,0.624-0.122,0.69-0.482c0.107-0.572,0.176-1.151,0.278-1.843
				c-0.325,0.229-0.524,0.368-0.797,0.56c0-0.476,0-0.852,0-1.326C84.536,60.323,83.146,60.37,81.665,60.399z M102.784,38.161
				c-0.028-0.094-0.057-0.188-0.087-0.281c0.877,0.155,1.375-0.3,1.743-0.938c0.523,0.525-0.234,0.718-0.291,1.191
				c0.752-0.614,0.988-1.318,0.984-2.142c-0.011-2.342-0.009-4.683-0.017-7.024c-0.001-0.176-0.035-0.353-0.056-0.546
				c-0.253-0.062-0.478-0.128-0.705-0.171c-1.983-0.372-3.986-0.379-5.987-0.273c-0.957,0.051-1.907,0.234-2.86,0.355
				c-0.501,0.063-0.572,0.341-0.402,0.786c0.322,0.023,0.626,0.046,0.832,0.062c0.068,0.521,0.08,1.002,0.197,1.456
				c0.515,1.986,1.044,3.968,1.602,5.941c0.281,0.995,0.068,1.856-0.575,2.619c-0.351,0.416-0.763,0.78-1.154,1.16
				c-0.269,0.263-0.55,0.513-0.826,0.769c0.025,0.023,0.052,0.047,0.078,0.072c0.928-0.78,1.857-1.56,2.886-2.425
				c0.674,0.522,1.402,1.087,2.052,1.591c1.201-0.672,2.385-1.334,3.69-2.063C103.421,38.24,103.103,38.2,102.784,38.161z
				 M87.075,58.76c0.04-0.048-0.016-0.011-0.016,0.024c0.002,0.391,0.004,0.781,0.022,1.17c0.048,1.035,0.677,1.836,1.68,2.129
				c1.166,0.342,2.368,0.397,3.557,0.253c1.986-0.244,3.552-1.654,3.873-3.45c0.297-1.66,0.042-3.23-1.071-4.557
				c-0.617-0.736-1.309-1.409-1.986-2.092c-0.475-0.479-0.999-0.912-1.472-1.395c-0.465-0.476-0.771-1.042-0.794-1.731
				c-0.025-0.785,0.283-1.226,1.033-1.437c0.922-0.26,1.747-0.012,2.502,0.521c0.365,0.258,0.704,0.552,1.163,0.918
				c-0.172-0.978,0.273-1.978-0.788-2.528c-0.019-0.009-0.019-0.054-0.037-0.066c-0.242-0.162-0.477-0.435-0.733-0.458
				c-1.033-0.095-2.084-0.237-3.105-0.134c-3.076,0.311-4.579,3.505-2.912,6.114c0.347,0.543,0.792,1.032,1.239,1.5
				c0.739,0.77,1.529,1.486,2.273,2.252c0.685,0.703,1.182,1.52,1.272,2.527c0.058,0.653-0.086,1.245-0.611,1.688
				c-0.961,0.812-2.947,0.712-3.837-0.166C87.933,59.454,87.488,59.115,87.075,58.76z M147.309,46.055
				c0.004-0.047,0.009-0.095,0.014-0.142c-0.103-0.015-0.203-0.042-0.306-0.042c-2.889,0.004-5.778,0.01-8.667,0.016
				c-0.077,0-0.179-0.026-0.229,0.013c-0.148,0.114-0.375,0.242-0.396,0.389c-0.092,0.671-0.122,1.35-0.182,2.113
				c0.3-0.263,0.501-0.441,0.809-0.711c0,0.526,0,0.892,0,1.356c0.714-0.833,1.551-1.13,2.666-1.074
				c0.026,2.235,0.061,4.437,0.072,6.639c0.013,2.207,0.004,4.413,0.004,6.619c0.054-0.026,0.107-0.054,0.161-0.081
				c0.272,0.266,0.544,0.529,0.876,0.853c0.941,0,1.996,0,3.066,0c-0.19-4.715-0.304-9.381-0.226-14.194
				c0.678,0.074,1.279,0.063,1.833,0.221c0.544,0.155,1.038,0.482,1.63,0.77c-0.065-0.588-0.115-1.128-0.194-1.665
				c-0.02-0.14-0.102-0.292-0.2-0.396C147.812,46.497,147.555,46.281,147.309,46.055z M101.605,62.097
				c-0.072-0.503-0.206-1.012-0.211-1.521c-0.032-3.714-0.04-7.428-0.055-11.142c-0.004-0.825-0.001-1.649-0.001-2.504
				c-0.411-0.073-0.76-0.161-0.777-0.636c-0.003-0.071-0.191-0.192-0.295-0.193c-1.031-0.015-2.061-0.008-3.038-0.008
				c0.057,0.783,0.15,1.529,0.158,2.275c0.042,4.026,0.063,8.054,0.094,12.08c0.002,0.305,0.027,0.607,0.036,0.798
				c0.297,0.202,0.607,0.298,0.661,0.472c0.118,0.385,0.363,0.381,0.658,0.381C99.74,62.095,100.646,62.097,101.605,62.097z
				 M95.181,33.086c-0.14-0.37-0.27-0.7-0.388-1.033c-0.117-0.332-0.38-0.468-0.671-0.362c-0.203,0.073-0.483,0.318-0.481,0.484
				c0.003,0.339,0.11,0.715,0.289,1.005c0.186,0.3,0.533,0.494,0.762,0.772c0.225,0.275,0.46,0.577,0.565,0.907
				c0.127,0.402-0.269,0.764-0.619,0.617c-0.427-0.179-0.858-0.361-1.255-0.596c-0.256-0.151-0.456-0.4-0.681-0.605
				c0.036-0.037,0.071-0.073,0.105-0.109c0.154,0.01,0.307,0.021,0.471,0.032c-0.148-0.262-0.27-0.476-0.475-0.838
				c0.363,0.108,0.564,0.169,0.788,0.236c-0.118-0.375-0.25-0.709-0.328-1.056c-0.307-1.375-1.632-1.962-2.813-1.239
				c-0.084,0.052-0.176,0.094-0.32,0.171c0.383,0.31,0.305,0.589-0.115,0.496c-0.696-0.154-0.437,0.239-0.441,0.561
				c0.343-0.14,0.343-0.14,0.49,0.722c0.178,0.039,0.364,0.08,0.562,0.124c-0.372,0.796-0.771,0.861-1.229,0.233
				c-0.152-0.209-0.25-0.463-0.42-0.654c-0.32-0.359-0.692-0.615-1.368-0.252c0.523,0.36,0.985,0.617,1.371,0.96
				c0.409,0.364,0.747,0.811,1.131,1.237c-0.506,0.191-0.877-0.059-1.234-0.38c-0.227-0.204-0.461-0.49-0.764-0.001
				c0.438,0.64,1.16,0.782,1.826,0.989c0.652,0.203,1.327,0.338,1.991,0.502c-0.166,0.217-0.306,0.279-0.447,0.334
				c-0.846,0.335-1.188,0.716-1.152,1.286c0.034,0.571,0.353,0.814,1.353,1.026c0.289,0.062,0.562,0.112,0.558,0.51
				c-0.004,0.372-0.143,0.592-0.535,0.621c-0.327,0.026-0.599,0.124-0.602,0.538c1.469-0.095,1.653-0.267,1.793-1.646
				c-1.105-0.504-1.327-0.994-0.726-1.594c0.204,0.868,0.339,0.979,1.283,0.926c0.464-0.025,0.926-0.122,1.39-0.161
				c0.283-0.023,0.614-0.043,0.642,0.37c0.022,0.345-0.093,0.617-0.505,0.642c-0.397,0.024-0.492,0.275-0.505,0.631
				c1.398-0.277,1.398-0.277,1.518-1.993c-0.188-0.051-0.399-0.074-0.578-0.165c-0.261-0.135-0.695-0.305-0.706-0.48
				c-0.02-0.343,0.109-0.793,0.344-1.034c0.73-0.746,0.777-1.141,0.034-1.855c-0.337-0.324-0.734-0.594-1.029-0.95
				c-0.179-0.214-0.243-0.542-0.297-0.831c-0.016-0.079,0.183-0.266,0.298-0.28c0.094-0.011,0.25,0.142,0.307,0.257
				c0.064,0.133,0.033,0.308,0.069,0.459C94.532,33.011,94.775,33.165,95.181,33.086z M124.076,69.699
				c0.125-0.011,0.253-0.013,0.377-0.03c1.666-0.229,3.144-0.918,4.451-1.944c1.062-0.835,2.055-1.756,3.091-2.625
				c0.523-0.439,1.073-0.849,1.648-1.301c-3.364-0.654-10.435,3.143-12.699,6.787c0.464-0.158,0.917-0.271,1.332-0.466
				c0.409-0.191,0.854-0.396,1.155-0.714c1.719-1.813,3.811-3.04,6.089-3.987c0.226-0.095,0.469-0.147,0.704-0.219
				c0.027,0.059,0.057,0.116,0.085,0.175C128.064,66.545,125.782,67.663,124.076,69.699z M66.407,63.92
				c0.002,0.05,0.004,0.101,0.006,0.151c1.532,1.273,3.048,2.568,4.604,3.812c1.023,0.818,2.179,1.418,3.46,1.739
				c0.475,0.118,0.964,0.18,1.446,0.268c-1.733-2.034-4.001-3.166-6.307-4.308c0.123-0.089,0.167-0.146,0.199-0.14
				c0.176,0.037,0.356,0.073,0.523,0.14c2.339,0.938,4.494,2.167,6.246,4.021c0.193,0.204,0.4,0.441,0.649,0.538
				c0.596,0.231,1.22,0.387,1.858,0.581c-1.115-1.514-3.558-3.573-5.653-4.767c-1.871-1.064-3.844-1.836-6.007-2.033
				C67.092,63.893,66.749,63.92,66.407,63.92z M102.744,76.139c0.225,0.046,0.447,0.097,0.673,0.136
				c1.294,0.226,2.587,0.202,3.883-0.001c1.956-0.308,3.776-0.956,5.369-2.161c0.329-0.249,0.683-0.496,0.814-0.865
				c-1.354,0.048-2.646,0.104-3.939,0.137c-0.806,0.02-1.615-0.03-2.419,0.012c-1.415,0.075-2.786,0.375-4.034,1.069
				c-0.478,0.267-0.897,0.637-1.344,0.96c0.037,0.073,0.074,0.146,0.11,0.219c2.847-0.142,5.607-0.87,8.412-1.335
				C107.882,75.366,105.336,75.724,102.744,76.139z M86.575,73.354c1.833,2.62,7.992,3.804,10.716,2.691
				c-0.523-0.058-1.021-0.076-1.502-0.173c-1.831-0.366-3.658-0.749-5.482-1.145c-0.208-0.045-0.391-0.199-0.585-0.304
				c0.027-0.062,0.055-0.121,0.083-0.182c2.768,0.604,5.523,1.277,8.403,1.319c-0.157-0.27-0.343-0.469-0.557-0.632
				c-0.845-0.643-1.82-0.996-2.842-1.219c-1.381-0.302-2.774-0.326-4.186-0.271C89.284,73.493,87.939,73.391,86.575,73.354z
				 M85.653,29.758c-1.292,0.679-2.493,1.279-3.662,1.937c-0.812,0.457-1.617,0.945-2.36,1.505c-0.875,0.659-1.502,1.538-2.012,2.71
				c2.41-0.983,4.187-2.581,6.002-4.15c-0.041,0.225-0.124,0.402-0.25,0.54c-1.442,1.557-3.006,2.997-4.998,3.779
				c-1.139,0.447-1.794,1.28-2.549,2.198c2.238-0.719,4.838-2.162,6.506-3.608c1.247-1.083,2.343-2.293,2.999-3.837
				C85.471,30.496,85.542,30.13,85.653,29.758z M123.804,37.958c-0.637-0.829-1.208-1.568-2.237-1.964
				c-2.047-0.786-3.68-2.216-5.171-3.797c-0.138-0.147-0.229-0.34-0.34-0.512c1.029,0.687,1.922,1.47,2.86,2.193
				c0.941,0.727,1.934,1.387,3.204,1.801c-0.656-1.467-1.578-2.521-2.813-3.241c-1.688-0.983-3.435-1.869-5.15-2.794
				C114.2,32.398,119.707,37.174,123.804,37.958z M78.074,67.125c0.662,2.977,5.218,6.919,7.885,6.724
				c-0.389-0.347-0.667-0.64-0.988-0.875c-1.506-1.107-3.026-2.195-4.534-3.302c-0.209-0.154-0.37-0.373-0.554-0.562
				c0.041-0.045,0.082-0.09,0.123-0.134c0.203,0.139,0.406,0.277,0.608,0.417c1.217,0.844,2.467,1.645,3.638,2.549
				c0.816,0.63,1.677,0.634,2.688,0.533c-0.923-1.139-1.943-2.064-3.174-2.686C81.922,68.857,80.024,68.032,78.074,67.125z
				 M121.951,66.946c-0.189,0.054-0.29,0.068-0.378,0.11c-1.026,0.489-2.032,1.026-3.081,1.464
				c-1.944,0.812-3.688,1.902-5.114,3.469c-0.104,0.114-0.182,0.255-0.306,0.431c0.35-0.018,0.629-0.101,0.86-0.029
				c0.629,0.196,1.098-0.083,1.569-0.416c1.316-0.926,2.633-1.851,3.951-2.774c0.183-0.127,0.375-0.239,0.562-0.358
				c0.034,0.054,0.069,0.105,0.104,0.159c-0.281,0.264-0.537,0.56-0.846,0.786c-1.42,1.048-2.859,2.069-4.279,3.116
				c-0.313,0.231-0.577,0.53-0.978,0.903C117.069,73.646,121.039,70.175,121.951,66.946z M117.193,73.888
				c1.995,0.966,9.598-1.099,11.83-3.061c-3.845-1.097-8.005-0.189-10.643,2.298c2.314-0.053,4.446-0.761,6.63-1.305
				c-0.166,0.214-0.361,0.358-0.579,0.441c-2.024,0.766-4.096,1.334-6.271,1.453C117.836,73.732,117.516,73.828,117.193,73.888z
				 M81.669,73.248c-2.986-2.65-7.256-3.309-10.792-2.173c4.264,2.418,9.829,3.841,11.957,2.992
				c-0.304-0.104-0.615-0.189-0.931-0.208c-2.227-0.134-4.357-0.684-6.434-1.469c-0.185-0.069-0.343-0.21-0.513-0.317
				c0.03-0.06,0.058-0.119,0.087-0.179C77.188,72.531,79.322,73.22,81.669,73.248z M109.078,76.762
				c0.001,0.061,0.003,0.122,0.004,0.183c0.062,0.039,0.12,0.089,0.187,0.116c0.145,0.058,0.292,0.111,0.441,0.151
				c2.124,0.58,4.257,0.665,6.387,0.05c1.397-0.404,2.784-0.848,4.256-0.89c0.031-0.001,0.062-0.07,0.091-0.108
				c-2.488-1.746-7.447-2.099-9.425-0.048c2.021-0.079,3.924-0.153,5.826-0.229C114.301,76.734,111.673,76.586,109.078,76.762z
				 M83.328,76.299c0.004-0.071,0.008-0.144,0.012-0.216c0.944,0.057,1.888,0.136,2.832,0.163c0.954,0.028,1.907,0.007,3.003,0.007
				c-2.854-2.261-7.884-1.23-9.597,0.202c0.076,0.034,0.143,0.091,0.209,0.091c1.371,0.002,2.658,0.409,3.958,0.78
				c2.149,0.611,4.312,0.548,6.467-0.006c0.272-0.069,0.528-0.207,0.791-0.313c-0.017-0.057-0.033-0.113-0.05-0.17
				C88.403,76.734,85.844,76.761,83.328,76.299z M122.364,39.242c2.472,0.633,4.691,1.784,6.93,3.149
				c-1.226-2.658-6.799-4.522-9.264-3.806c0.942,0.724,1.907,1.459,2.866,2.201c1.844,1.427,3.882,2.407,6.21,2.729
				c0.231,0.032,0.463,0.072,0.694,0.108c0.014-0.059,0.027-0.118,0.041-0.178C127.492,41.793,124.904,40.554,122.364,39.242z
				 M70.622,42.475c2.152-1.24,4.328-2.413,6.748-3.038c-1.226,0.73-2.505,1.348-3.758,2.015c-1.249,0.663-2.466,1.382-3.742,2.312
				c0.288,0.021,0.389,0.038,0.489,0.032c0.155-0.008,0.311-0.024,0.464-0.051c2.362-0.409,4.431-1.437,6.292-2.934
				c0.808-0.65,1.665-1.238,2.497-1.859c0.069-0.051,0.106-0.146,0.172-0.24C76.746,38.203,71.965,39.963,70.622,42.475z
				 M131.908,44.555c-0.463-1.822-1.272-3.384-1.857-5.027c1.124,1.497,1.723,3.245,2.454,5.007
				c0.922-1.743-1.146-6.031-3.556-7.761c0.048,0.662,0.097,1.278,0.139,1.896c0.122,1.771,0.713,3.391,1.605,4.908
				C130.94,43.997,131.268,44.353,131.908,44.555z M70.757,37.028c-0.053-0.031-0.106-0.062-0.159-0.092
				c-0.76,0.971-1.607,1.888-2.256,2.929c-0.758,1.213-1.274,2.559-1.275,4.034c0,0.263,0.097,0.527,0.149,0.791
				c0.059-0.01,0.116-0.019,0.174-0.029c0.659-1.75,1.306-3.507,2.424-5.038c-0.611,1.688-1.433,3.295-1.881,5.124
				c0.513-0.051,0.778-0.34,0.991-0.647c0.264-0.383,0.491-0.795,0.694-1.214C70.522,41.031,70.839,39.065,70.757,37.028z
				 M128.144,40.176c-0.067-2.059-3.769-6.453-6.19-7.528c0.501,3.013,3.014,6.389,5.045,6.742
				c-0.701-1.625-1.983-2.825-2.979-4.228c0.933,0.574,1.635,1.368,2.26,2.222C126.907,38.246,127.468,39.158,128.144,40.176z
				 M72.736,39.708c2.626-1.193,4.813-4.127,5.002-6.982c-2.562,2.1-5.215,4.066-6.054,7.5c0.239-0.192,0.408-0.438,0.548-0.699
				c0.784-1.458,1.8-2.734,2.993-3.874c0.142-0.134,0.325-0.222,0.489-0.332c0.034,0.049,0.07,0.097,0.104,0.146
				C74.68,36.764,73.487,38.023,72.736,39.708z M78.52,44.837c0.138,0.034,0.484,0.075,0.485,0.125
				c0.016,0.648,0.505,0.346,0.774,0.373c0.488,0.048,0.993,0.064,1.476-0.004c1.047-0.151,2.103-0.301,3.123-0.569
				c0.901-0.237,1.1-0.757,0.691-1.599c-0.157-0.324-0.479-0.567-0.648-0.758C82.408,43.233,80.46,44.037,78.52,44.837z
				 M96.658,77.616c0.043,0.068,0.088,0.138,0.132,0.207c-0.905,0.62-1.811,1.24-2.717,1.86c0.02,0.072,0.038,0.146,0.057,0.218
				c0.415,0.076,0.831,0.15,1.245,0.23c0.432,0.084,0.753-0.075,1.014-0.418c0.762-1.002,1.534-1.996,2.308-3.003
				c-2.639,0.302-5.136,1.08-7.413,2.846c1.375,0.323,1.75,0.23,2.723-0.389C94.869,78.618,95.772,78.131,96.658,77.616z
				 M103.229,77.779c0.024-0.048,0.049-0.096,0.071-0.144c0.253,0.108,0.519,0.192,0.755,0.328c0.766,0.438,1.547,0.858,2.274,1.354
				c0.744,0.508,1.482,0.456,2.418,0.165c-2.277-1.761-4.782-2.491-7.418-2.785c0.805,1.021,1.594,2.036,2.404,3.036
				c0.12,0.147,0.335,0.31,0.505,0.309c0.574-0.004,1.149-0.079,1.724-0.126c0.021-0.083,0.041-0.166,0.061-0.248
				C105.091,79.039,104.16,78.409,103.229,77.779z M107.138,42.271c0.002,0.041,0.003,0.08,0.003,0.121
				c0.887-0.181,1.774-0.355,2.659-0.544c1.56-0.333,2.486-1.283,2.85-2.841c0.478-2.047,1.007-4.082,1.506-6.123
				c0.045-0.182,0.029-0.379,0.042-0.592c-0.511,0.015-0.515,0.359-0.586,0.653c-0.505,2.067-1.021,4.131-1.512,6.202
				c-0.233,0.983-0.795,1.681-1.706,2.089c-0.402,0.18-0.82,0.326-1.24,0.456C108.486,41.899,107.811,42.079,107.138,42.271z
				 M92.048,41.81c0.021-0.038,0.042-0.076,0.063-0.114c-0.302-0.064-0.603-0.134-0.907-0.192c-1.751-0.329-2.869-1.267-3.291-3.081
				c-0.416-1.792-1.001-3.545-1.505-5.317c-0.1-0.35-0.176-0.705-0.718-0.716c0.025,0.208,0.024,0.385,0.072,0.548
				c0.173,0.598,0.359,1.192,0.544,1.788c0.468,1.512,0.921,3.029,1.413,4.533c0.354,1.081,1.067,1.844,2.196,2.128
				C90.618,41.564,91.337,41.671,92.048,41.81z M104.715,27.676c-3.073-1.076-6.15-1.058-9.223-0.003
				C98.563,27.234,101.635,27.209,104.715,27.676z M86.651,31.525c1.283-0.494,2.545-1.06,3.857-1.462
				c1.299-0.398,2.649-0.631,3.784-0.892C91.6,29.059,88.962,29.814,86.651,31.525z M107.41,29.499
				c1.773,0.509,3.757,1.078,5.783,1.659C111.349,29.926,109.351,29.412,107.41,29.499z M108.371,32.657
				c-0.025-0.001-0.05-0.004-0.076-0.006c-0.394,0.834-0.788,1.668-1.17,2.474c0.296,0.672,0.705,0.495,1.104,0.271
				C108.278,34.451,108.324,33.554,108.371,32.657z M110.591,35.625c-0.031-0.019-0.061-0.037-0.092-0.055
				c-0.311,0.649-0.595,1.312-0.94,1.941c-0.235,0.429-0.182,0.72,0.266,0.965c0.215-0.078,0.446-0.162,0.607-0.22
				C110.488,37.323,110.539,36.474,110.591,35.625z M107.28,38.215c-0.428,0.892-0.802,1.668-1.169,2.434
				c0.418,0.573,0.418,0.573,1.169,0.221C107.28,40.036,107.28,39.2,107.28,38.215z M103.368,39.84
				c0.645,0.667,1.289,1.334,1.934,2.001C104.729,40.649,104.033,39.916,103.368,39.84z"/>
			<path fill-rule="evenodd" clip-rule="evenodd" d="M69.687,55.064c0,2.344,0,4.687,0,7.085c-1.13,0-2.182,0-3.291,0
				c-0.004-0.489-0.304-0.708-0.803-0.704c0.187-5.088,0.296-10.138-0.142-15.221c0.162-0.011,0.339-0.036,0.516-0.036
				c1.664-0.005,3.332,0.055,4.992-0.024c1.733-0.082,3.056,0.576,4.166,1.859c1.282,1.484,1.269,5.221-1.716,6.519
				c-0.256,0.112-0.523,0.2-0.853,0.323c0.12,0.162,0.188,0.297,0.293,0.391c1.222,1.098,2.057,2.463,2.785,3.916
				c0.581,1.16,1.194,2.309,1.862,3.421c0.534,0.892,1.187,1.691,2.109,2.258c0.342,0.212,0.536,0.664,0.806,1.018
				c-0.189,0.013-0.501,0.062-0.809,0.048c-3.344-0.151-5.625-1.932-7.157-4.776c-0.464-0.863-0.754-1.82-1.129-2.731
				c-0.406-0.984-0.814-1.967-1.229-2.945c-0.065-0.154-0.176-0.289-0.264-0.433C69.778,55.041,69.732,55.053,69.687,55.064z
				 M69.648,53.825c2.289-0.557,3.51-4.139,2.104-5.806c-0.266-0.316-1.134-0.472-1.612-0.287c-0.452,0.175-0.486,0.558-0.486,0.965
				c0.001,0.728-0.005,1.457-0.006,2.185C69.646,51.84,69.648,52.798,69.648,53.825z"/>
			<path fill-rule="evenodd" clip-rule="evenodd" d="M104.588,62.052c-0.265-0.238-0.528-0.478-0.793-0.716
				c-0.051,0.027-0.102,0.054-0.152,0.081c-0.073-5.104,0.18-10.215-0.327-15.381c0.497,0.044,0.981,0.128,1.467,0.122
				c1.089-0.014,2.185-0.011,3.268-0.123c4.102-0.425,7.322,3.031,7.589,6.461c0.148,1.905,0.054,3.746-0.701,5.497
				c-0.963,2.238-2.579,3.743-5.066,4.151c-0.128,0.021-0.257,0.048-0.386,0.048c-1.635,0.004-3.27,0.002-4.904,0.002
				C104.583,62.146,104.585,62.1,104.588,62.052z M107.74,60.58c0.901,0.039,1.602-0.271,2.088-0.863
				c0.469-0.569,0.893-1.228,1.142-1.917c0.592-1.636,0.658-3.354,0.537-5.081c-0.098-1.386-0.336-2.729-1-3.974
				c-0.395-0.74-1.027-1.079-1.816-1.176c-0.662-0.083-0.976,0.158-1.082,0.804c-0.055,0.333-0.115,0.671-0.111,1.006
				c0.038,3.536,0.087,7.073,0.138,10.61C107.637,60.164,107.695,60.339,107.74,60.58z"/>
			<path fill-rule="evenodd" clip-rule="evenodd" d="M129.097,62.026c-0.5,0-0.937,0-1.373,0c0.022-0.04,0.046-0.08,0.068-0.119
				c-0.235-0.191-0.516-0.349-0.692-0.583c-0.151-0.201-0.256-0.491-0.258-0.741c-0.006-1.587,0.028-3.175,0.04-4.762
				c0.018-2.55,0.012-5.101,0.052-7.65c0.013-0.743-0.088-1.395-0.746-1.972c0.338-0.044,0.676-0.1,1.016-0.128
				c0.312-0.026,0.634,0.027,0.934-0.038c1.615-0.356,2.536,0.815,3.037,1.957c1.076,2.451,2.092,4.928,3.134,7.393
				c0.106,0.254,0.228,0.501,0.481,0.729c0.01-0.216,0.032-0.433,0.029-0.647c-0.038-2.653-0.082-5.308-0.119-7.961
				c-0.021-1.487-0.017-1.487,1.565-1.424c-0.062,0.205-0.121,0.398-0.196,0.645c0.333,0.048,0.605,0.087,0.808,0.117
				c-0.054,0.526-0.153,1.029-0.152,1.531c0.014,4.319,0.046,8.638,0.07,12.957c0.001,0.201-0.019,0.402-0.028,0.592
				c-2.181,0.467-3.512-0.104-4.483-2.134c-1.053-2.2-1.929-4.486-2.886-6.732c-0.116-0.274-0.252-0.541-0.414-0.886
				C128.736,53.169,128.831,61.188,129.097,62.026z"/>
			<path fill-rule="evenodd" clip-rule="evenodd" d="M59.461,55.016c0.286-0.166,0.496-0.287,0.705-0.408
				c-0.014-0.041-0.027-0.082-0.04-0.123c-0.425,0-0.849,0-1.392,0c0.021,2.536-0.106,5.068,0.346,7.663c-1.163,0-2.263,0-3.235,0
				c-0.305-0.232-0.518-0.463-0.78-0.581c-0.366-0.163-0.297-0.453-0.293-0.724c0.021-1.482,0.087-2.965,0.078-4.447
				c-0.016-2.678-0.059-5.356-0.12-8.034c-0.016-0.694-0.142-1.386-0.219-2.112c0.12-0.014,0.246-0.041,0.371-0.041
				c1.819-0.002,3.64,0.037,5.458-0.012c1.783-0.048,3.096,0.754,4.121,2.114c0.906,1.203,0.875,3.283-0.02,4.73
				C63.381,54.757,61.634,55.463,59.461,55.016z M58.744,54.13c0.199-0.027,0.279-0.023,0.347-0.05
				c2.079-0.803,3.113-4.028,1.893-5.896c-0.266-0.406-0.933-0.603-1.545-0.471c-0.55,0.118-0.654,0.538-0.674,0.997
				c-0.024,0.569-0.02,1.14-0.021,1.71C58.743,51.634,58.744,52.849,58.744,54.13z"/>
			<path fill-rule="evenodd" clip-rule="evenodd" d="M124.822,60.336c0.334-0.231,0.536-0.37,0.843-0.582
				c-0.096,0.663-0.167,1.226-0.262,1.783c-0.061,0.357-0.28,0.516-0.658,0.514c-2.185-0.013-4.369-0.002-6.554-0.03
				c-0.202-0.003-0.413-0.205-0.598-0.344c-0.092-0.07-0.126-0.288-0.202-0.297c-0.67-0.074-0.546-0.565-0.549-0.992
				c-0.028-3.796-0.044-7.593-0.093-11.389c-0.013-0.957-0.131-1.913-0.203-2.919c0.036-0.012,0.127-0.071,0.219-0.072
				c2.208-0.036,4.417-0.062,6.624-0.097c0.467-0.008,0.967-0.112,1.096,0.547c1.059,0.5,0.628,1.485,0.748,2.339
				c-0.976-1.026-2.195-1.17-3.485-1.076c-0.843,0.062-0.983,0.198-0.992,1.047c-0.012,1.139-0.002,2.279-0.002,3.481
				c0.948,0,1.844,0,2.78,0c-0.033,0.245-0.06,0.441-0.095,0.707c0.271,0.014,0.512,0.026,0.751,0.039
				c-0.079,1.087-0.251,1.254-1.295,1.26c-0.521,0.004-1.041-0.005-1.561,0.016c-0.345,0.015-0.607,0.158-0.603,0.564
				c0.017,1.638,0.03,3.275,0.058,4.913c0.003,0.147,0.084,0.296,0.146,0.504c1.418,0,2.799-0.062,3.984-1.35
				C124.885,59.425,124.86,59.79,124.822,60.336z"/>
			<path fill-rule="evenodd" clip-rule="evenodd" d="M81.665,60.399c1.481-0.029,2.872-0.076,3.986-1.296c0,0.475,0,0.851,0,1.326
				c0.273-0.191,0.472-0.331,0.797-0.56c-0.102,0.691-0.171,1.271-0.278,1.843c-0.067,0.36-0.326,0.497-0.69,0.482
				c-0.779-0.029-1.559-0.056-2.339-0.06c-1.352-0.008-2.705-0.002-4.058,0.006c-0.344,0.002-0.704,0.069-0.745-0.438
				c-0.006-0.065-0.073-0.177-0.119-0.18c-0.881-0.066-0.625-0.734-0.628-1.226c-0.016-3.042,0.012-6.085-0.022-9.127
				c-0.019-1.658-0.13-3.314-0.202-5.042c0.35,0.02,0.779,0.075,1.207,0.067c1.845-0.036,3.69-0.089,5.535-0.138
				c0.483-0.012,1.022-0.143,1.16,0.559c1.134,0.481,0.492,1.528,0.758,2.326c-1.005-1.104-2.283-1.161-3.597-1.075
				c-0.719,0.047-0.876,0.198-0.885,0.899c-0.015,1.191-0.004,2.383-0.004,3.632c0.925,0,1.795,0,2.734,0
				c-0.012,0.196-0.025,0.407-0.042,0.666c0.235,0.029,0.455,0.058,0.739,0.092c-0.024,0.204-0.022,0.406-0.077,0.593
				c-0.111,0.379-0.343,0.642-0.775,0.646c-0.52,0.005-1.041,0.003-1.56,0.007c-1.007,0.007-1.049,0.049-1.043,1.063
				c0.006,1.327,0.01,2.654,0.029,3.98C81.55,59.747,81.618,60.048,81.665,60.399z"/>
			<path fill-rule="evenodd" clip-rule="evenodd" d="M102.784,38.161c0.318,0.04,0.637,0.079,1.105,0.137
				c-1.306,0.729-2.489,1.392-3.69,2.063c-0.65-0.504-1.378-1.069-2.052-1.591c-1.029,0.866-1.958,1.646-2.886,2.425
				c-0.025-0.024-0.052-0.048-0.078-0.072c0.276-0.255,0.557-0.506,0.826-0.769c0.391-0.38,0.803-0.745,1.154-1.16
				c0.643-0.763,0.855-1.625,0.575-2.619c-0.558-1.973-1.086-3.956-1.602-5.941c-0.117-0.454-0.129-0.935-0.197-1.456
				c-0.206-0.016-0.509-0.038-0.832-0.062c-0.17-0.445-0.099-0.722,0.402-0.786c0.953-0.121,1.903-0.304,2.86-0.355
				c2.001-0.105,4.004-0.099,5.987,0.273c0.228,0.043,0.452,0.109,0.705,0.171c0.021,0.193,0.055,0.37,0.056,0.546
				c0.008,2.341,0.006,4.683,0.017,7.024c0.004,0.823-0.232,1.527-0.984,2.142c0.057-0.473,0.814-0.666,0.291-1.191
				c-0.368,0.638-0.866,1.093-1.743,0.938C102.728,37.973,102.756,38.066,102.784,38.161z M97.333,32.602
				c-0.008,0.084-0.018,0.167-0.026,0.251c0.538,0.105,1.075,0.212,1.436,0.283c0.413-0.514,0.741-0.95,1.1-1.359
				c0.197-0.225,0.436-0.409,0.243-0.862c-0.402,0.751-1.435,0.851-1.401,1.82C98.2,32.687,97.767,32.645,97.333,32.602z
				 M99.798,32.168c0.017,0.054,0.033,0.106,0.049,0.159c0.901-0.329,1.803-0.658,2.663-0.972
				C101.876,30.972,100.973,31.221,99.798,32.168z M104.794,31.892c-0.321,0.979-1.084,1.147-1.868,1.285
				c0.026,0.057,0.054,0.114,0.081,0.171c0.427,0.04,0.854,0.079,1.353,0.125C104.318,32.919,105.325,32.809,104.794,31.892z
				 M100.65,29.641c-0.006,0.061-0.011,0.121-0.016,0.182c1.127,0.324,2.303,0.14,3.465,0.214c-0.091-0.14-0.197-0.233-0.31-0.239
				C102.744,29.737,101.697,29.691,100.65,29.641z M99.197,28.673c-0.076,0.165-0.251,0.362-0.209,0.487
				c0.148,0.433-0.093,0.619-0.393,0.806c-0.291,0.182-0.579,0.371-1.016,0.651c0.309,0.031,0.536,0.129,0.683,0.058
				C99.057,30.289,99.592,29.728,99.197,28.673z M99.801,36.962c0.025,0.079,0.05,0.158,0.075,0.236
				c0.828-0.319,1.657-0.637,2.516-0.968C101.313,35.811,100.642,36.663,99.801,36.962z M100.626,34.647
				c0.493,0.345,2.502,0.498,3.152,0.169C102.728,34.76,101.678,34.704,100.626,34.647z M98.531,37.797
				c0.092,0.03,0.279,0.092,0.312,0.103c0.365-0.449,0.647-0.827,0.963-1.173c0.196-0.213,0.461-0.373,0.34-0.764
				c-0.376,0.316-0.725,0.552-0.997,0.854C98.914,37.077,98.765,37.415,98.531,37.797z"/>
			<path fill-rule="evenodd" clip-rule="evenodd" d="M87.075,58.76c0.413,0.355,0.857,0.694,1.252,1.083
				c0.89,0.878,2.876,0.978,3.837,0.166c0.525-0.443,0.668-1.035,0.611-1.688c-0.09-1.008-0.587-1.824-1.272-2.527
				c-0.744-0.766-1.534-1.482-2.273-2.252c-0.448-0.468-0.892-0.957-1.239-1.5c-1.667-2.608-0.164-5.803,2.912-6.114
				c1.021-0.103,2.073,0.04,3.105,0.134c0.256,0.023,0.491,0.297,0.733,0.458c0.019,0.012,0.019,0.057,0.037,0.066
				c1.061,0.55,0.615,1.55,0.788,2.528c-0.459-0.366-0.798-0.66-1.163-0.918c-0.755-0.533-1.58-0.781-2.502-0.521
				c-0.75,0.211-1.059,0.651-1.033,1.437c0.023,0.689,0.329,1.255,0.794,1.731c0.474,0.482,0.997,0.915,1.472,1.395
				c0.677,0.683,1.37,1.355,1.986,2.092c1.112,1.326,1.368,2.896,1.071,4.557c-0.321,1.796-1.886,3.206-3.873,3.45
				c-1.189,0.145-2.391,0.089-3.557-0.253c-1.002-0.293-1.632-1.094-1.68-2.129c-0.018-0.389-0.02-0.779-0.022-1.17
				C87.06,58.749,87.115,58.712,87.075,58.76z"/>
			<path fill-rule="evenodd" clip-rule="evenodd" d="M147.309,46.055c0.246,0.226,0.503,0.442,0.732,0.684
				c0.099,0.104,0.181,0.256,0.2,0.396c0.079,0.537,0.129,1.076,0.194,1.665c-0.592-0.288-1.086-0.615-1.63-0.77
				c-0.554-0.158-1.155-0.147-1.833-0.221c-0.078,4.813,0.035,9.479,0.226,14.194c-1.07,0-2.125,0-3.066,0
				c-0.332-0.323-0.604-0.587-0.876-0.853c-0.054,0.027-0.107,0.055-0.161,0.081c0-2.206,0.009-4.412-0.004-6.619
				c-0.012-2.202-0.046-4.404-0.072-6.639c-1.115-0.056-1.952,0.241-2.666,1.074c0-0.465,0-0.831,0-1.356
				c-0.308,0.27-0.509,0.449-0.809,0.711c0.06-0.764,0.09-1.442,0.182-2.113c0.021-0.146,0.247-0.275,0.396-0.389
				c0.05-0.039,0.151-0.013,0.229-0.013c2.889-0.006,5.778-0.012,8.667-0.016c0.103,0,0.203,0.028,0.306,0.042
				C147.317,45.96,147.312,46.007,147.309,46.055z"/>
			<path fill-rule="evenodd" clip-rule="evenodd" d="M101.605,62.097c-0.959,0-1.865-0.002-2.771,0.001
				c-0.295,0-0.54,0.004-0.658-0.381c-0.054-0.174-0.364-0.27-0.661-0.472c-0.008-0.19-0.033-0.493-0.036-0.798
				c-0.031-4.026-0.051-8.054-0.094-12.08c-0.008-0.746-0.101-1.492-0.158-2.275c0.977,0,2.007-0.006,3.038,0.008
				c0.104,0.001,0.292,0.123,0.295,0.193c0.018,0.475,0.366,0.563,0.777,0.636c0,0.854-0.003,1.679,0.001,2.504
				c0.015,3.714,0.022,7.428,0.055,11.142C101.399,61.085,101.533,61.594,101.605,62.097z"/>
			<path fill-rule="evenodd" clip-rule="evenodd" d="M95.181,33.086c-0.405,0.079-0.649-0.075-0.746-0.465
				c-0.036-0.151-0.004-0.326-0.069-0.459c-0.056-0.116-0.213-0.269-0.307-0.257c-0.115,0.014-0.314,0.201-0.298,0.28
				c0.054,0.289,0.118,0.617,0.297,0.831c0.295,0.355,0.692,0.625,1.029,0.95c0.743,0.714,0.696,1.109-0.034,1.855
				c-0.235,0.241-0.363,0.69-0.344,1.034c0.01,0.175,0.444,0.345,0.706,0.48c0.179,0.091,0.391,0.114,0.578,0.165
				c-0.119,1.715-0.119,1.715-1.518,1.993c0.013-0.356,0.107-0.607,0.505-0.631c0.412-0.025,0.527-0.297,0.505-0.642
				c-0.027-0.413-0.358-0.393-0.642-0.37c-0.464,0.039-0.926,0.135-1.39,0.161c-0.943,0.053-1.079-0.058-1.283-0.926
				c-0.601,0.601-0.379,1.09,0.726,1.594c-0.14,1.38-0.324,1.552-1.793,1.646c0.003-0.414,0.275-0.512,0.602-0.538
				c0.393-0.029,0.531-0.249,0.535-0.621c0.005-0.398-0.269-0.449-0.558-0.51c-1-0.212-1.318-0.456-1.353-1.026
				c-0.036-0.57,0.307-0.951,1.152-1.286c0.141-0.056,0.281-0.117,0.447-0.334c-0.665-0.165-1.339-0.3-1.991-0.502
				c-0.666-0.207-1.388-0.349-1.826-0.989c0.302-0.489,0.537-0.203,0.764,0.001c0.357,0.321,0.728,0.571,1.234,0.38
				c-0.384-0.426-0.722-0.873-1.131-1.237c-0.386-0.343-0.848-0.6-1.371-0.96c0.676-0.363,1.048-0.106,1.368,0.252
				c0.17,0.191,0.268,0.445,0.42,0.654c0.459,0.627,0.857,0.562,1.229-0.233c-0.198-0.043-0.384-0.085-0.562-0.124
				c-0.146-0.861-0.146-0.861-0.49-0.722c0.004-0.321-0.255-0.714,0.441-0.561c0.42,0.093,0.499-0.186,0.115-0.496
				c0.144-0.077,0.236-0.119,0.32-0.171c1.182-0.723,2.506-0.135,2.813,1.239c0.078,0.347,0.21,0.681,0.328,1.056
				c-0.224-0.067-0.425-0.127-0.788-0.236c0.205,0.362,0.326,0.577,0.475,0.838c-0.164-0.012-0.317-0.022-0.471-0.032
				c-0.035,0.036-0.07,0.073-0.105,0.109c0.225,0.205,0.425,0.454,0.681,0.605c0.396,0.235,0.828,0.417,1.255,0.596
				c0.35,0.147,0.746-0.215,0.619-0.617c-0.105-0.33-0.34-0.632-0.565-0.907c-0.229-0.279-0.577-0.473-0.762-0.772
				c-0.179-0.29-0.286-0.666-0.289-1.005c-0.001-0.166,0.279-0.411,0.481-0.484c0.291-0.106,0.554,0.03,0.671,0.362
				C94.911,32.387,95.041,32.716,95.181,33.086z"/>
			<path fill-rule="evenodd" clip-rule="evenodd" d="M124.076,69.699c1.706-2.036,3.988-3.154,6.233-4.324
				c-0.028-0.059-0.058-0.116-0.085-0.175c-0.235,0.071-0.479,0.124-0.704,0.219c-2.278,0.947-4.37,2.174-6.089,3.987
				c-0.302,0.318-0.746,0.522-1.155,0.714c-0.415,0.194-0.868,0.308-1.332,0.466c2.265-3.645,9.335-7.441,12.699-6.787
				c-0.575,0.452-1.125,0.861-1.648,1.301c-1.036,0.869-2.029,1.79-3.091,2.625c-1.308,1.026-2.785,1.715-4.451,1.944
				C124.329,69.687,124.201,69.688,124.076,69.699z"/>
			<path fill-rule="evenodd" clip-rule="evenodd" d="M66.407,63.92c0.342,0,0.685-0.027,1.023,0.004
				c2.164,0.197,4.136,0.969,6.007,2.033c2.095,1.193,4.538,3.253,5.653,4.767c-0.638-0.194-1.263-0.35-1.858-0.581
				c-0.249-0.097-0.456-0.334-0.649-0.538c-1.752-1.854-3.906-3.083-6.246-4.021c-0.167-0.066-0.347-0.103-0.523-0.14
				c-0.031-0.006-0.076,0.051-0.199,0.14c2.306,1.142,4.574,2.273,6.307,4.308c-0.482-0.088-0.972-0.149-1.446-0.268
				c-1.281-0.321-2.437-0.921-3.46-1.739c-1.556-1.244-3.072-2.539-4.604-3.812C66.411,64.021,66.409,63.97,66.407,63.92z"/>
			<path fill-rule="evenodd" clip-rule="evenodd" d="M102.744,76.139c2.592-0.415,5.138-0.772,7.525-1.83
				c-2.805,0.465-5.565,1.193-8.412,1.335c-0.036-0.072-0.073-0.146-0.11-0.219c0.446-0.323,0.866-0.693,1.344-0.96
				c1.248-0.694,2.619-0.994,4.034-1.069c0.804-0.042,1.613,0.008,2.419-0.012c1.293-0.033,2.586-0.089,3.939-0.137
				c-0.132,0.369-0.485,0.616-0.814,0.865c-1.593,1.205-3.413,1.854-5.369,2.161c-1.296,0.203-2.589,0.227-3.883,0.001
				C103.191,76.235,102.969,76.185,102.744,76.139z"/>
			<path fill-rule="evenodd" clip-rule="evenodd" d="M86.575,73.354c1.364,0.036,2.708,0.139,4.047,0.087
				c1.412-0.056,2.805-0.031,4.186,0.271c1.022,0.223,1.997,0.576,2.842,1.219c0.214,0.163,0.4,0.362,0.557,0.632
				c-2.88-0.042-5.636-0.715-8.403-1.319c-0.027,0.061-0.055,0.12-0.083,0.182c0.194,0.104,0.377,0.259,0.585,0.304
				c1.825,0.396,3.651,0.778,5.482,1.145c0.481,0.097,0.979,0.115,1.502,0.173C94.567,77.158,88.408,75.975,86.575,73.354z"/>
			<path fill-rule="evenodd" clip-rule="evenodd" d="M85.653,29.758c-0.11,0.373-0.182,0.738-0.325,1.074
				c-0.656,1.544-1.752,2.753-2.999,3.837c-1.668,1.447-4.268,2.89-6.506,3.608c0.755-0.918,1.41-1.751,2.549-2.198
				c1.992-0.782,3.556-2.223,4.998-3.779c0.126-0.138,0.209-0.315,0.25-0.54c-1.815,1.569-3.592,3.167-6.002,4.15
				c0.509-1.172,1.137-2.051,2.012-2.71c0.743-0.56,1.548-1.048,2.36-1.505C83.16,31.037,84.36,30.437,85.653,29.758z"/>
			<path fill-rule="evenodd" clip-rule="evenodd" d="M123.804,37.958c-4.097-0.784-9.604-5.561-9.647-8.315
				c1.716,0.925,3.462,1.812,5.15,2.794c1.235,0.719,2.157,1.774,2.813,3.241c-1.271-0.414-2.263-1.074-3.204-1.801
				c-0.938-0.723-1.831-1.506-2.86-2.193c0.111,0.171,0.202,0.365,0.34,0.512c1.491,1.582,3.124,3.011,5.171,3.797
				C122.596,36.39,123.167,37.13,123.804,37.958z"/>
			<path fill-rule="evenodd" clip-rule="evenodd" d="M78.074,67.125c1.951,0.907,3.849,1.732,5.692,2.665
				c1.231,0.621,2.251,1.547,3.174,2.686c-1.01,0.101-1.872,0.097-2.688-0.533c-1.171-0.904-2.421-1.705-3.638-2.549
				c-0.202-0.14-0.405-0.278-0.608-0.417c-0.042,0.044-0.083,0.089-0.123,0.134c0.184,0.188,0.345,0.407,0.554,0.562
				c1.507,1.106,3.028,2.194,4.534,3.302c0.321,0.235,0.599,0.528,0.988,0.875C83.292,74.044,78.735,70.102,78.074,67.125z"/>
			<path fill-rule="evenodd" clip-rule="evenodd" d="M121.951,66.946c-0.912,3.229-4.882,6.7-7.934,6.86
				c0.4-0.373,0.664-0.672,0.978-0.903c1.42-1.047,2.859-2.068,4.279-3.116c0.309-0.227,0.564-0.522,0.846-0.786
				c-0.035-0.054-0.07-0.105-0.104-0.159c-0.188,0.119-0.38,0.231-0.562,0.358c-1.318,0.924-2.635,1.849-3.951,2.774
				c-0.472,0.333-0.94,0.612-1.569,0.416c-0.231-0.071-0.511,0.012-0.86,0.029c0.124-0.176,0.202-0.316,0.306-0.431
				c1.426-1.566,3.17-2.656,5.114-3.469c1.049-0.438,2.055-0.975,3.081-1.464C121.661,67.015,121.762,67,121.951,66.946z"/>
			<path fill-rule="evenodd" clip-rule="evenodd" d="M117.193,73.888c0.322-0.06,0.643-0.155,0.967-0.173
				c2.176-0.119,4.247-0.688,6.271-1.453c0.218-0.083,0.413-0.228,0.579-0.441c-2.184,0.544-4.315,1.252-6.63,1.305
				c2.638-2.487,6.798-3.395,10.643-2.298C126.791,72.789,119.188,74.854,117.193,73.888z"/>
			<path fill-rule="evenodd" clip-rule="evenodd" d="M81.669,73.248c-2.347-0.028-4.48-0.717-6.625-1.354
				c-0.029,0.06-0.057,0.119-0.087,0.179c0.17,0.107,0.328,0.248,0.513,0.317c2.076,0.785,4.207,1.335,6.434,1.469
				c0.316,0.019,0.627,0.104,0.931,0.208c-2.128,0.849-7.692-0.574-11.957-2.992C74.413,69.939,78.683,70.598,81.669,73.248z"/>
			<path fill-rule="evenodd" clip-rule="evenodd" d="M109.078,76.762c2.595-0.176,5.223-0.027,7.767-0.774
				c-1.902,0.075-3.805,0.149-5.826,0.229c1.978-2.051,6.937-1.698,9.425,0.048c-0.029,0.038-0.06,0.107-0.091,0.108
				c-1.472,0.042-2.858,0.485-4.256,0.89c-2.13,0.615-4.263,0.53-6.387-0.05c-0.149-0.04-0.297-0.094-0.441-0.151
				c-0.066-0.027-0.124-0.077-0.187-0.116C109.081,76.884,109.079,76.822,109.078,76.762z"/>
			<path fill-rule="evenodd" clip-rule="evenodd" d="M83.328,76.299c2.516,0.462,5.076,0.436,7.624,0.538
				c0.017,0.057,0.033,0.113,0.05,0.17c-0.263,0.106-0.518,0.244-0.791,0.313c-2.154,0.554-4.317,0.617-6.467,0.006
				c-1.3-0.371-2.587-0.778-3.958-0.78c-0.066,0-0.133-0.057-0.209-0.091c1.713-1.433,6.743-2.463,9.597-0.202
				c-1.096,0-2.049,0.021-3.003-0.007c-0.944-0.027-1.888-0.106-2.832-0.163C83.335,76.155,83.332,76.228,83.328,76.299z"/>
			<path fill-rule="evenodd" clip-rule="evenodd" d="M122.364,39.242c2.54,1.312,5.128,2.551,7.478,4.204
				c-0.014,0.06-0.027,0.119-0.041,0.178c-0.231-0.036-0.463-0.076-0.694-0.108c-2.328-0.323-4.366-1.303-6.21-2.729
				c-0.959-0.742-1.924-1.478-2.866-2.201c2.465-0.717,8.038,1.147,9.264,3.806C127.056,41.026,124.836,39.875,122.364,39.242z"/>
			<path fill-rule="evenodd" clip-rule="evenodd" d="M70.622,42.475c1.343-2.512,6.124-4.272,9.162-3.763
				c-0.065,0.094-0.103,0.189-0.172,0.24c-0.832,0.621-1.689,1.209-2.497,1.859c-1.86,1.497-3.929,2.524-6.292,2.934
				c-0.154,0.027-0.309,0.043-0.464,0.051c-0.1,0.006-0.201-0.011-0.489-0.032c1.275-0.931,2.493-1.649,3.742-2.312
				c1.253-0.667,2.533-1.285,3.758-2.015C74.95,40.062,72.774,41.235,70.622,42.475z"/>
			<path fill-rule="evenodd" clip-rule="evenodd" d="M131.908,44.555c-0.641-0.202-0.968-0.558-1.215-0.977
				c-0.893-1.517-1.483-3.136-1.605-4.908c-0.042-0.617-0.091-1.234-0.139-1.896c2.409,1.729,4.478,6.018,3.556,7.761
				c-0.731-1.762-1.33-3.511-2.454-5.007C130.636,41.17,131.445,42.733,131.908,44.555z"/>
			<path fill-rule="evenodd" clip-rule="evenodd" d="M70.757,37.028c0.082,2.037-0.235,4.002-1.139,5.856
				c-0.204,0.419-0.43,0.832-0.694,1.214c-0.212,0.308-0.478,0.596-0.991,0.647c0.449-1.829,1.271-3.435,1.881-5.124
				c-1.119,1.531-1.766,3.287-2.424,5.038c-0.058,0.01-0.116,0.02-0.174,0.029c-0.052-0.263-0.15-0.527-0.149-0.791
				c0.001-1.475,0.517-2.82,1.275-4.034c0.649-1.041,1.496-1.958,2.256-2.929C70.651,36.967,70.704,36.997,70.757,37.028z"/>
			<path fill-rule="evenodd" clip-rule="evenodd" d="M128.144,40.176c-0.676-1.018-1.236-1.93-1.865-2.792
				c-0.625-0.854-1.327-1.648-2.26-2.222c0.996,1.403,2.278,2.603,2.979,4.228c-2.031-0.353-4.544-3.729-5.045-6.742
				C124.375,33.723,128.076,38.117,128.144,40.176z"/>
			<path fill-rule="evenodd" clip-rule="evenodd" d="M72.736,39.708c0.751-1.685,1.944-2.944,3.083-4.24
				c-0.034-0.049-0.07-0.097-0.104-0.146c-0.165,0.109-0.348,0.197-0.489,0.332c-1.192,1.139-2.209,2.416-2.993,3.874
				c-0.141,0.261-0.309,0.506-0.548,0.699c0.839-3.435,3.492-5.401,6.054-7.5C77.549,35.581,75.362,38.515,72.736,39.708z"/>
			<path fill-rule="evenodd" clip-rule="evenodd" d="M78.52,44.837c1.94-0.8,3.888-1.604,5.901-2.434
				c0.168,0.191,0.491,0.434,0.648,0.758c0.408,0.841,0.209,1.362-0.691,1.599c-1.02,0.268-2.076,0.418-3.123,0.569
				c-0.483,0.069-0.988,0.053-1.476,0.004c-0.269-0.027-0.758,0.276-0.774-0.373C79.004,44.912,78.658,44.871,78.52,44.837z"/>
			<path fill-rule="evenodd" clip-rule="evenodd" d="M96.658,77.616c-0.885,0.515-1.789,1.002-2.651,1.552
				c-0.973,0.619-1.348,0.712-2.723,0.389c2.277-1.766,4.773-2.544,7.413-2.846c-0.774,1.007-1.545,2.001-2.308,3.003
				c-0.261,0.343-0.583,0.502-1.014,0.418c-0.415-0.08-0.83-0.154-1.245-0.23c-0.019-0.072-0.038-0.146-0.057-0.218
				c0.906-0.62,1.812-1.24,2.717-1.86C96.746,77.754,96.701,77.685,96.658,77.616z"/>
			<path fill-rule="evenodd" clip-rule="evenodd" d="M103.229,77.779c0.932,0.63,1.862,1.26,2.794,1.889
				c-0.02,0.082-0.04,0.165-0.061,0.248c-0.574,0.047-1.149,0.122-1.724,0.126c-0.17,0.001-0.385-0.161-0.505-0.309
				c-0.811-1-1.6-2.016-2.404-3.036c2.636,0.294,5.141,1.024,7.418,2.785c-0.936,0.291-1.674,0.343-2.418-0.165
				c-0.728-0.495-1.509-0.916-2.274-1.354c-0.236-0.136-0.502-0.22-0.755-0.328C103.277,77.684,103.253,77.731,103.229,77.779z"/>
			<path fill-rule="evenodd" clip-rule="evenodd" d="M105.9,37.529c-0.541,0.805-1.302,1.324-2.18,1.697
				c-0.806,0.344-1.606,0.7-2.45,0.983c0.23-0.137,0.456-0.284,0.694-0.408c0.508-0.263,1.017-0.523,1.532-0.768
				c1.547-0.73,2.304-1.859,2.204-3.652c-0.116-2.1-0.039-4.211-0.029-6.319c0.001-0.27,0.098-0.54,0.15-0.81
				c0.084,0.004,0.168,0.009,0.253,0.013c0.036,0.18,0.103,0.359,0.104,0.54c0.017,2.315,0.043,4.63,0.019,6.944
				c-0.007,0.588-0.191,1.175-0.292,1.762L105.9,37.529z"/>
			<path fill-rule="evenodd" clip-rule="evenodd" d="M107.138,42.271c0.673-0.191,1.349-0.372,2.016-0.579
				c0.42-0.13,0.838-0.276,1.24-0.456c0.911-0.408,1.473-1.105,1.706-2.089c0.49-2.071,1.007-4.135,1.512-6.202
				c0.071-0.293,0.075-0.638,0.586-0.653c-0.013,0.213,0.003,0.41-0.042,0.592c-0.499,2.041-1.028,4.075-1.506,6.123
				c-0.363,1.558-1.29,2.508-2.85,2.841c-0.885,0.188-1.772,0.363-2.659,0.544C107.141,42.351,107.14,42.311,107.138,42.271z"/>
			<path fill-rule="evenodd" clip-rule="evenodd" d="M92.048,41.81c-0.711-0.138-1.431-0.246-2.132-0.422
				c-1.129-0.284-1.842-1.047-2.196-2.128c-0.492-1.504-0.945-3.021-1.413-4.533c-0.185-0.595-0.371-1.19-0.544-1.788
				c-0.047-0.163-0.046-0.34-0.072-0.548c0.542,0.011,0.619,0.366,0.718,0.716c0.504,1.772,1.09,3.525,1.505,5.317
				c0.422,1.814,1.539,2.752,3.291,3.081c0.304,0.058,0.604,0.127,0.907,0.192C92.091,41.733,92.07,41.771,92.048,41.81z"/>
			<path fill-rule="evenodd" clip-rule="evenodd" d="M104.715,27.676c-3.08-0.467-6.151-0.442-9.223-0.003
				C98.565,26.618,101.642,26.6,104.715,27.676z"/>
			<path fill-rule="evenodd" clip-rule="evenodd" d="M86.651,31.525c2.311-1.71,4.948-2.466,7.641-2.354
				c-1.135,0.26-2.485,0.493-3.784,0.892C89.197,30.465,87.934,31.031,86.651,31.525z"/>
			<path fill-rule="evenodd" clip-rule="evenodd" d="M107.41,29.499c1.94-0.087,3.938,0.427,5.783,1.659
				C111.167,30.577,109.184,30.008,107.41,29.499z"/>
			<path fill-rule="evenodd" clip-rule="evenodd" d="M108.371,32.657c-0.047,0.897-0.093,1.794-0.143,2.739
				c-0.398,0.224-0.808,0.401-1.104-0.271c0.382-0.806,0.776-1.64,1.17-2.474C108.321,32.653,108.346,32.656,108.371,32.657z"/>
			<path fill-rule="evenodd" clip-rule="evenodd" d="M110.591,35.625c-0.052,0.849-0.103,1.699-0.159,2.631
				c-0.161,0.058-0.393,0.143-0.607,0.22c-0.447-0.245-0.501-0.536-0.266-0.965c0.346-0.63,0.63-1.292,0.94-1.941
				C110.53,35.588,110.56,35.605,110.591,35.625z"/>
			<path fill-rule="evenodd" clip-rule="evenodd" d="M107.28,38.215c0,0.985,0,1.821,0,2.654c-0.751,0.353-0.751,0.353-1.169-0.221
				C106.479,39.883,106.853,39.106,107.28,38.215z"/>
			<path fill-rule="evenodd" clip-rule="evenodd" d="M109.016,32.062c0.348-0.108,0.633,0.005,0.75,0.334
				c0.056,0.156,0.005,0.458-0.109,0.542c-0.177,0.129-0.492,0.228-0.67,0.153c-0.174-0.074-0.289-0.369-0.354-0.589
				c-0.035-0.116,0.089-0.28,0.142-0.423C108.854,32.074,108.935,32.068,109.016,32.062z"/>
			<path fill-rule="evenodd" clip-rule="evenodd" d="M105.9,37.529l0.006-0.017c0.298-0.349,0.679-0.264,1.056-0.201
				c0.028,0.03,0.051,0.063,0.069,0.1c-0.047,0.264-0.02,0.589-0.167,0.771c-0.111,0.138-0.482,0.179-0.679,0.106
				C105.874,38.172,105.761,37.872,105.9,37.529z"/>
			<path fill-rule="evenodd" clip-rule="evenodd" d="M109.016,32.062c-0.081,0.005-0.161,0.012-0.242,0.017
				c-0.279-0.103-0.56-0.206-0.839-0.309l0.022,0.021c0.017-0.178-0.035-0.438,0.063-0.516c0.192-0.158,0.481-0.317,0.7-0.281
				c0.167,0.026,0.335,0.335,0.408,0.55C109.177,31.688,109.059,31.888,109.016,32.062z"/>
			<path fill-rule="evenodd" clip-rule="evenodd" d="M110.307,34.745c-0.003,0.156,0.02,0.317-0.013,0.466
				c-0.08,0.36-0.355,0.569-0.682,0.458c-0.213-0.073-0.474-0.362-0.49-0.573c-0.027-0.35,0.274-0.531,0.635-0.52
				c0.155,0.005,0.308,0.044,0.462,0.066C110.253,34.672,110.283,34.707,110.307,34.745z"/>
			<path fill-rule="evenodd" clip-rule="evenodd" d="M107.935,31.771c0.054,0.172,0.16,0.347,0.149,0.516
				c-0.024,0.36-0.289,0.608-0.618,0.552c-0.218-0.037-0.5-0.292-0.562-0.507c-0.107-0.361,0.188-0.572,0.525-0.625
				c0.168-0.026,0.353,0.054,0.528,0.086L107.935,31.771z"/>
			<path fill-rule="evenodd" clip-rule="evenodd" d="M107.031,37.411c-0.019-0.037-0.041-0.069-0.069-0.1
				c-0.119-0.377-0.003-0.695,0.367-0.79c0.202-0.052,0.543,0.033,0.672,0.184c0.296,0.344,0.073,0.657-0.219,0.912l0.026-0.021
				C107.55,37.535,107.29,37.473,107.031,37.411z"/>
			<path fill-rule="evenodd" clip-rule="evenodd" d="M111.078,34.941c0.104-0.015,0.205-0.035,0.309-0.042
				c0.322-0.024,0.604,0.082,0.62,0.426c0.009,0.194-0.116,0.5-0.267,0.571c-0.19,0.087-0.515,0.062-0.698-0.05
				c-0.269-0.164-0.312-0.461-0.08-0.737c0.05-0.059,0.092-0.125,0.138-0.187L111.078,34.941z"/>
			<path fill-rule="evenodd" clip-rule="evenodd" d="M110.307,34.745c-0.023-0.038-0.054-0.072-0.088-0.102
				c-0.117-0.332-0.057-0.637,0.273-0.768c0.184-0.074,0.485-0.067,0.641,0.04c0.493,0.337,0.178,0.692-0.055,1.026l0.021-0.019
				C110.836,34.863,110.571,34.804,110.307,34.745z"/>
			<path fill-rule="evenodd" clip-rule="evenodd" d="M107.782,37.618c0.103-0.012,0.205-0.037,0.306-0.033
				c0.524,0.018,0.736,0.206,0.691,0.598c-0.042,0.36-0.366,0.569-0.744,0.481c-0.37-0.087-0.485-0.382-0.332-0.865
				c0.023-0.071,0.07-0.134,0.105-0.201L107.782,37.618z"/>
			<path fill-rule="evenodd" clip-rule="evenodd" d="M103.368,39.84c0.665,0.076,1.361,0.809,1.934,2.001
				C104.657,41.174,104.013,40.507,103.368,39.84z"/>
			<path fill-rule="evenodd" clip-rule="evenodd" fill="none" d="M69.648,53.825c0-1.027-0.002-1.985,0-2.942
				c0-0.728,0.007-1.457,0.006-2.185c0-0.407,0.034-0.791,0.486-0.965c0.478-0.185,1.346-0.03,1.612,0.287
				C73.158,49.687,71.938,53.269,69.648,53.825z"/>
			<path fill-rule="evenodd" clip-rule="evenodd" fill="none" d="M107.74,60.58c-0.045-0.241-0.104-0.416-0.105-0.591
				c-0.051-3.537-0.1-7.074-0.138-10.61c-0.004-0.335,0.057-0.674,0.111-1.006c0.106-0.646,0.42-0.887,1.082-0.804
				c0.789,0.097,1.422,0.437,1.816,1.176c0.664,1.246,0.902,2.588,1,3.974c0.121,1.728,0.055,3.445-0.537,5.081
				c-0.249,0.689-0.673,1.348-1.142,1.917C109.342,60.309,108.642,60.619,107.74,60.58z"/>
			<path fill-rule="evenodd" clip-rule="evenodd" fill="none" d="M58.744,54.13c0-1.281-0.001-2.496,0-3.709
				c0.001-0.57-0.004-1.141,0.021-1.71c0.02-0.459,0.124-0.879,0.674-0.997c0.613-0.131,1.28,0.065,1.545,0.471
				c1.22,1.868,0.186,5.093-1.893,5.896C59.023,54.106,58.943,54.103,58.744,54.13z"/>
			<path fill-rule="evenodd" clip-rule="evenodd" fill="none" d="M97.333,32.602c0.434,0.042,0.867,0.084,1.351,0.132
				c-0.033-0.969,0.999-1.068,1.401-1.82c0.192,0.453-0.046,0.637-0.243,0.862c-0.359,0.41-0.687,0.845-1.1,1.359
				c-0.361-0.071-0.898-0.177-1.436-0.283C97.314,32.769,97.324,32.686,97.333,32.602z"/>
			<path fill-rule="evenodd" clip-rule="evenodd" fill="none" d="M99.798,32.168c1.175-0.947,2.078-1.196,2.712-0.813
				c-0.86,0.314-1.762,0.643-2.663,0.972C99.831,32.274,99.814,32.222,99.798,32.168z"/>
			<path fill-rule="evenodd" clip-rule="evenodd" fill="none" d="M104.794,31.892c0.531,0.917-0.476,1.027-0.435,1.581
				c-0.498-0.046-0.926-0.085-1.353-0.125c-0.027-0.057-0.055-0.114-0.081-0.171C103.71,33.039,104.473,32.871,104.794,31.892z"/>
			<path fill-rule="evenodd" clip-rule="evenodd" fill="none" d="M100.65,29.641c1.047,0.05,2.094,0.096,3.14,0.157
				c0.112,0.006,0.219,0.1,0.31,0.239c-1.162-0.075-2.338,0.109-3.465-0.214C100.64,29.762,100.645,29.702,100.65,29.641z"/>
			<path fill-rule="evenodd" clip-rule="evenodd" fill="none" d="M99.197,28.673c0.396,1.055-0.14,1.616-0.936,2.002
				c-0.146,0.071-0.374-0.026-0.683-0.058c0.437-0.28,0.725-0.469,1.016-0.651c0.3-0.188,0.542-0.374,0.393-0.806
				C98.945,29.035,99.121,28.837,99.197,28.673z"/>
			<path fill-rule="evenodd" clip-rule="evenodd" fill="none" d="M99.801,36.962c0.841-0.299,1.513-1.152,2.591-0.732
				c-0.858,0.331-1.688,0.649-2.516,0.968C99.851,37.12,99.826,37.042,99.801,36.962z"/>
			<path fill-rule="evenodd" clip-rule="evenodd" fill="none" d="M100.626,34.647c1.052,0.057,2.102,0.113,3.152,0.169
				C103.128,35.145,101.119,34.992,100.626,34.647z"/>
			<path fill-rule="evenodd" clip-rule="evenodd" fill="none" d="M98.531,37.797c0.234-0.382,0.383-0.72,0.618-0.98
				c0.272-0.303,0.621-0.538,0.997-0.854c0.121,0.392-0.144,0.551-0.34,0.764c-0.316,0.347-0.598,0.725-0.963,1.173
				C98.81,37.889,98.623,37.827,98.531,37.797z"/>
		</g>
	</g>
</g>
<g id="Artwork">
</g>
</svg>
