<?xml version="1.0" encoding="utf-8"?>
<!-- Generator: Adobe Illustrator 16.0.4, SVG Export Plug-In . SVG Version: 6.00 Build 0)  -->
<!DOCTYPE svg PUBLIC "-//W3C//DTD SVG 1.1//EN" "http://www.w3.org/Graphics/SVG/1.1/DTD/svg11.dtd">
<svg version="1.1" id="Layer_1" xmlns="http://www.w3.org/2000/svg" xmlns:xlink="http://www.w3.org/1999/xlink" x="0px" y="0px"
	 width="200px" height="100px" viewBox="0 0 200 100" enable-background="new 0 0 200 100" xml:space="preserve">
<g id="Layer_1_1_">
	<g>
		<path fill="#1D1D1B" d="M148.179,55.332c-0.841,0-1.52,0.677-1.52,1.51c0,0.84,0.679,1.519,1.52,1.519
			c0.837,0,1.51-0.679,1.51-1.519C149.69,56.009,149.016,55.332,148.179,55.332L148.179,55.332L148.179,55.332L148.179,55.332z
			 M148.179,58.179c-0.737,0-1.332-0.596-1.332-1.337c0-0.733,0.595-1.327,1.332-1.327c0.733,0,1.328,0.594,1.328,1.327
			C149.508,57.583,148.912,58.179,148.179,58.179L148.179,58.179L148.179,58.179L148.179,58.179z"/>
		<path fill="#1D1D1B" d="M148.955,56.445c0-0.144-0.062-0.294-0.189-0.365c-0.126-0.075-0.27-0.082-0.412-0.082l0,0h-0.737v1.691
			h0.206v-0.78h0.381l0.483,0.78h0.247l-0.512-0.78l0,0C148.723,56.899,148.955,56.778,148.955,56.445L148.955,56.445
			L148.955,56.445L148.955,56.445z M148.142,56.746h-0.319v-0.6h0.485l0,0c0.208,0,0.438,0.031,0.438,0.294
			C148.746,56.786,148.379,56.746,148.142,56.746L148.142,56.746L148.142,56.746L148.142,56.746z"/>
		<path fill="#1D1D1B" d="M139.302,48.26l3.096-3.307l0,0c0.181-0.243,0.269-0.413,0.269-0.557c0-0.243-0.208-0.341-0.866-0.341l0,0
			h-0.78v-2.087h8.458v2.087h-1.111l0,0c-1.284,0-1.522,0.194-3.313,2.452l0,0l-4.899,5.29v3.229l0,0
			c0,0.825,0.418,1.115,1.612,1.115l0,0h1.85v2.016h-11.847v-2.016h1.852l0,0c1.193,0,1.61-0.29,1.61-1.115l0,0v-3.229l-5.771-6.383
			l0,0c-0.954-1.116-0.822-1.36-3.476-1.36l0,0v-2.086h10.712v2.086h-0.763l0,0c-0.776,0-1.104,0.147-1.104,0.438
			c0,0.243,0.239,0.436,0.389,0.63l0,0l2.919,3.181l0,0C138.482,48.665,138.904,48.712,139.302,48.26L139.302,48.26L139.302,48.26
			L139.302,48.26z"/>
		<path fill="#1D1D1B" d="M67.421,41.967h2.583v5.825h-2.386l0,0c-0.211-1.164-0.94-1.619-1.605-2.229
			c-1.198-1.101-3.795-2.018-5.978-2.018c-2.817,0-5.197,0.874-5.197,2.159c0,3.568,16.119,0.728,16.119,7.476
			c0,3.519-3.453,5.485-9.654,5.485c-2.146,0-5.395-0.667-7.312-1.684c-0.602-0.35-0.856,0.326-0.968,1.175l0,0h-2.65v-6.021h2.397
			l0,0c0.528,1.53,1.257,1.844,1.926,2.451c1.163,1.067,3.929,1.846,6.466,1.82c3.825-0.038,5.141-0.873,5.141-2.087
			s-1.301-1.504-5.493-2.16l0,0l-3.558-0.582l0,0c-4.016-0.607-6.941-1.505-6.941-4.71c0-3.324,3.699-5.413,9.548-5.413
			c2.465,0,4.528,0.329,6.506,1.448C66.913,43.262,67.427,43.304,67.421,41.967L67.421,41.967L67.421,41.967L67.421,41.967z"/>
		<path fill="#1D1D1B" d="M117.854,51.718l0.051-6.474l0,0c0-0.849-0.442-1.14-1.705-1.14l0,0h-1.484V42.09h9.441v2.014h-1.232l0,0
			c-1.263,0-1.705,0.292-1.705,1.14l0,0v13.033l-3.694-0.027l-11.964-11.331v8.227l0,0c0,0.828,0.442,1.143,1.704,1.143l0,0h1.642
			v1.99h-9.801v-1.99h1.624l0,0c1.264,0,1.704-0.314,1.704-1.143l0,0v-9.901l0,0c0-0.85-0.441-1.141-1.704-1.141l0,0h-1.624V42.09
			h8.476L117.854,51.718L117.854,51.718L117.854,51.718z"/>
		<path fill="#1D1D1B" d="M86.236,41.334c-7.523,0-12.232,3.326-12.232,8.666c0,5.244,4.645,8.543,12.002,8.543
			c7.817,0,12.363-3.252,12.363-8.81C98.369,44.733,93.463,41.334,86.236,41.334L86.236,41.334L86.236,41.334L86.236,41.334z
			 M86.065,56.432c-4.164,0-6.558-2.404-6.558-6.554c0-4.054,2.498-6.456,6.765-6.456c4.095,0,6.488,2.452,6.488,6.625
			C92.761,54.127,90.333,56.432,86.065,56.432L86.065,56.432L86.065,56.432L86.065,56.432z"/>
	</g>
</g>
</svg>
