<?xml version="1.0" encoding="utf-8"?>
<!-- Generator: Adobe Illustrator 16.0.4, SVG Export Plug-In . SVG Version: 6.00 Build 0)  -->
<!DOCTYPE svg PUBLIC "-//W3C//DTD SVG 1.1//EN" "http://www.w3.org/Graphics/SVG/1.1/DTD/svg11.dtd">
<svg version="1.1" id="Layer_1" xmlns="http://www.w3.org/2000/svg" xmlns:xlink="http://www.w3.org/1999/xlink" x="0px" y="0px"
	 width="200px" height="100px" viewBox="0 0 200 100" enable-background="new 0 0 200 100" xml:space="preserve">
<g id="Layer_1_1_">
	<g>
		<polygon points="126.566,30.591 125.452,34.404 133.302,34.404 134.423,30.591 		"/>
		<polygon points="135.275,30.591 134.158,34.404 142.014,34.404 143.129,30.591 		"/>
		<polygon points="143.98,30.591 142.865,34.404 150.715,34.404 151.833,30.591 		"/>
		<path d="M57.66,50.277c-3.657,0-4.466-1.844-3.69-4.488l1.625-5.48c0.778-2.645,2.673-4.494,6.329-4.494H72.08l-0.849,2.833H66.56
			c-1.284,0-1.929,0.432-2.267,1.479L62.6,45.974c-0.337,1.044,0.102,1.477,1.389,1.477h6.113l-0.843,2.83H57.66V50.277z"/>
		<path d="M79.61,44.923l-0.303,1.05c-0.339,1.043,0.101,1.476,1.389,1.476h12.085l-0.848,2.828H74.635
			c-3.589,0-4.198-1.353-3.316-4.369l1.696-5.719c0.876-3.02,2.3-4.375,5.886-4.375h12.147c3.588,0,4.195,1.355,3.315,4.375
			l-1.386,4.734H79.61z M86.684,39.819c0.239-0.83,0.066-1.171-0.813-1.171h-3.282c-0.879,0-1.252,0.342-1.492,1.171l-0.674,2.275
			h5.582L86.684,39.819z"/>
		<path d="M106.15,38.648c-0.979,0-1.385,0.31-1.656,1.201l-2.096,7.107c-0.578,1.999-0.545,1.814-0.981,3.323H92.82
			c0.438-1.447,0.403-1.324,0.979-3.323l1.724-5.877c0.95-3.228,3.116-5.264,6.875-5.264h7.82l-0.845,2.832L106.15,38.648
			L106.15,38.648z"/>
		<path d="M111.592,50.277c-2.533,0-4.465-0.92-3.416-4.523l3.857-13.073h7.99l-0.918,3.134h4.052l-0.851,2.833h-4.043l-2.24,7.632
			c-0.269,0.923-0.168,1.17,1.254,1.17h3.386l-0.849,2.829h-8.223V50.277z"/>
		<polygon points="120.716,50.277 124.979,35.815 132.964,35.815 128.698,50.277 		"/>
		<path d="M146.035,38.648c-0.814,0-1.014,0.032-1.387,0.432c-0.41,0.404-0.311,0.833-0.104,1.204l2.234,4.459
			c0.303,0.583,1.183,2.214-0.242,4.029c-0.941,1.199-2.098,1.507-3.516,1.507h-13.435l0.845-2.829h5.723
			c0.574,0,1.046-0.183,1.316-0.493c0.342-0.34,0.438-0.798,0.203-1.259l-2.365-4.618c-0.578-1.2-0.479-2.675,0.642-3.875
			c1.083-1.17,2.233-1.388,3.687-1.388h10.762l-0.848,2.832L146.035,38.648L146.035,38.648z"/>
		<path d="M56.812,54.096c-3.483,0-5.814,1.657-6.738,4.799l-1.621,5.478c-0.463,1.562-0.366,2.796,0.283,3.657
			c0.684,0.918,1.968,1.38,3.813,1.38h13.256l1.102-3.685H58.88c-0.733,0-0.951-0.146-1.016-0.238
			c-0.083-0.111-0.073-0.356,0.035-0.678l1.692-5.858c0.281-0.86,0.766-1.167,1.859-1.167h5.803l1.1-3.686H56.812V54.096z
			 M49.419,67.516c-0.266-0.355-0.397-0.812-0.397-1.379c0-0.443,0.079-0.955,0.249-1.527l1.627-5.477
			c0.814-2.775,2.807-4.184,5.914-4.184h10.394c-0.187,0.619-0.478,1.597-0.591,1.977H61.45c-1.449,0-2.276,0.545-2.675,1.773
			l-1.698,5.854c-0.083,0.266-0.126,0.504-0.126,0.715c0,0.28,0.075,0.519,0.222,0.721c0.382,0.529,1.157,0.589,1.707,0.589h6.881
			c-0.184,0.618-0.478,1.596-0.589,1.979H52.551C50.992,68.557,49.936,68.205,49.419,67.516"/>
		<path d="M101.775,54.096c-3.489,0-5.817,1.657-6.742,4.799l-1.622,5.478c-0.461,1.562-0.365,2.796,0.283,3.657
			c0.685,0.918,1.97,1.38,3.817,1.38h13.256l1.104-3.685h-8.033c-0.732,0-0.949-0.147-1.016-0.238
			c-0.08-0.114-0.068-0.356,0.033-0.678l1.696-5.858c0.28-0.86,0.769-1.167,1.858-1.167h5.803l1.102-3.686h-11.539V54.096z
			 M94.38,67.516c-0.267-0.355-0.398-0.812-0.398-1.379c0-0.443,0.083-0.955,0.251-1.527l1.625-5.477
			c0.815-2.775,2.806-4.184,5.917-4.184h10.389c-0.182,0.619-0.475,1.597-0.588,1.977h-5.164c-1.455,0-2.277,0.545-2.672,1.773
			l-1.697,5.854c-0.085,0.266-0.131,0.504-0.131,0.715c0,0.28,0.076,0.519,0.221,0.721c0.387,0.529,1.161,0.589,1.707,0.589h6.887
			c-0.187,0.618-0.479,1.596-0.596,1.979H97.514C95.948,68.557,94.897,68.205,94.38,67.516"/>
		<path d="M84.68,54.096c-1.557,0-2.832,0.262-4,1.521c-1.158,1.245-1.424,2.872-0.717,4.356l2.376,4.62
			c0.176,0.354,0.031,0.606-0.125,0.769c-0.209,0.232-0.585,0.365-1.019,0.365H76.69l-1.102,3.683h12.477
			c1.252,0,2.693-0.198,3.857-1.67c1.573-2.011,0.608-3.863,0.289-4.47l-2.24-4.476c-0.206-0.376-0.147-0.544,0.018-0.706
			c0.26-0.277,0.312-0.307,1.091-0.307h2.868l1.101-3.686H84.68L84.68,54.096z M81.193,66.577c0.69,0,1.287-0.231,1.644-0.636
			c0.284-0.286,0.438-0.653,0.438-1.035c0-0.236-0.059-0.475-0.176-0.704l-2.373-4.615c-0.197-0.417-0.298-0.851-0.298-1.28
			c0-0.75,0.298-1.488,0.878-2.106c0.962-1.041,1.968-1.25,3.373-1.25h9.217c-0.182,0.62-0.476,1.597-0.59,1.978h-2.228
			c-0.873,0-1.217,0.045-1.702,0.566c-0.2,0.197-0.397,0.494-0.397,0.893c0,0.232,0.071,0.502,0.234,0.807l2.224,4.445
			c0.188,0.354,0.505,0.963,0.505,1.719c0,0.554-0.173,1.188-0.697,1.855c-0.753,0.953-1.674,1.344-3.181,1.344H76.737
			c0.183-0.621,0.477-1.597,0.59-1.979L81.193,66.577L81.193,66.577z"/>
		<path d="M70.779,54.096l-4.518,15.312h8.88l4.515-15.312H70.779L70.779,54.096z M78.516,54.949
			c-0.296,0.992-3.851,13.041-4.013,13.607h-7.098c0.291-0.994,3.846-13.045,4.012-13.607H78.516z"/>
		<path d="M120.613,54.096c-3.598,0-5.305,1.269-6.299,4.676l-1.694,5.723c-0.522,1.805-0.493,2.962,0.092,3.748
			c0.599,0.795,1.755,1.166,3.638,1.166h12.452c3.601,0,5.304-1.266,6.3-4.674l1.692-5.723c0.526-1.806,0.494-2.961-0.094-3.75
			c-0.601-0.797-1.755-1.166-3.636-1.166H120.613L120.613,54.096z M113.396,67.729c-0.407-0.543-0.394-1.496,0.045-2.994
			l1.689-5.723c0.889-3.039,2.271-4.062,5.48-4.062h12.451c1.57,0,2.535,0.271,2.949,0.824c0.411,0.543,0.397,1.496-0.039,2.996
			l-1.695,5.724c-0.887,3.037-2.268,4.063-5.478,4.063h-12.452C114.777,68.557,113.812,68.284,113.396,67.729"/>
		<path d="M124.303,56.926c-1.035,0-1.607,0.439-1.904,1.479l-1.892,6.458c-0.116,0.408-0.212,0.92,0.074,1.298
			c0.28,0.374,0.79,0.417,1.149,0.417h3.313c1.097,0,1.667-0.424,1.97-1.479l1.896-6.461c0.112-0.397,0.206-0.908-0.08-1.285
			c-0.286-0.379-0.8-0.429-1.212-0.429L124.303,56.926L124.303,56.926z M121.26,65.645c0,0-0.059-0.097,0.069-0.545l1.892-6.459
			c0.194-0.685,0.418-0.859,1.082-0.859h3.313c0.45,0,0.53,0.087,0.53,0.087c0,0.002,0.02,0.022,0.02,0.101
			c0,0.075-0.02,0.211-0.084,0.437l-1.893,6.456c-0.181,0.637-0.381,0.861-1.146,0.861h-3.312
			C121.34,65.725,121.262,65.645,121.26,65.645"/>
	</g>
</g>
<g id="bottle">
</g>
</svg>
