<?xml version="1.0" encoding="utf-8"?>
<!-- Generator: Adobe Illustrator 16.0.4, SVG Export Plug-In . SVG Version: 6.00 Build 0)  -->
<!DOCTYPE svg PUBLIC "-//W3C//DTD SVG 1.1//EN" "http://www.w3.org/Graphics/SVG/1.1/DTD/svg11.dtd">
<svg version="1.1" id="Layer_1" xmlns="http://www.w3.org/2000/svg" xmlns:xlink="http://www.w3.org/1999/xlink" x="0px" y="0px"
	 width="200px" height="100px" viewBox="0 0 200 100" enable-background="new 0 0 200 100" xml:space="preserve">
<rect x="65.438" y="23.012" fill="none" width="72.395" height="54.971"/>
<g>
	<path fill="#A8A8A7" d="M121.451,68.697c-1.283,0-2.176,0.234-2.684,0.699c-0.417,0.372-0.625,0.979-0.625,1.815
		c0,0.838,0.208,1.443,0.625,1.813c0.508,0.455,1.402,0.685,2.684,0.685s2.174-0.229,2.684-0.685
		c0.418-0.372,0.628-0.976,0.628-1.813c0-0.84-0.21-1.443-0.628-1.815C123.627,68.933,122.732,68.697,121.451,68.697z"/>
	<path fill="#A8A8A7" d="M65.438,23.012v54.971h72.395V23.012H65.438z M74.347,75.165c-3.507,0-6.253-2.183-6.253-4.969
		c0-2.787,2.747-4.972,6.253-4.972c2.369,0,4.481,1.014,5.543,2.652c-0.149,0.091-5.174,3.221-5.174,3.221
		c-0.509,0.318-1.189,0.177-1.518-0.312c-0.155-0.235-0.209-0.513-0.149-0.79c0.06-0.276,0.23-0.514,0.476-0.666l2.813-1.758
		l-0.15-0.066c-0.549-0.238-1.169-0.361-1.841-0.361c-2.167,0-3.683,1.254-3.683,3.053c0,1.796,1.515,3.05,3.683,3.05
		c2.116,0,3.612-1.205,3.676-2.94h2.567C80.52,73.037,77.8,75.165,74.347,75.165z M84.545,69.759
		c0.302,0.101,1.031,0.177,2.188,0.228c1.405,0.061,2.445,0.196,3.126,0.411c1.156,0.383,1.734,1.056,1.734,2.008
		c0,1.613-1.649,2.421-4.953,2.421c-3.302,0-4.951-0.808-4.951-2.419h2.407c0,0.243,0.107,0.42,0.324,0.533
		c0.37,0.201,1.112,0.304,2.221,0.304c1.111,0,1.853-0.103,2.221-0.304c0.218-0.113,0.325-0.29,0.325-0.535
		c0-0.294-0.139-0.492-0.416-0.593c-0.324-0.114-1.057-0.193-2.198-0.244c-1.419-0.061-2.463-0.197-3.126-0.41
		c-1.171-0.373-1.757-1.041-1.757-2.003c0-1.604,1.649-2.41,4.951-2.41c3.304,0,4.953,0.804,4.953,2.408h-2.407
		c0-0.238-0.107-0.415-0.325-0.526c-0.368-0.2-1.11-0.302-2.221-0.302c-1.109,0-1.851,0.102-2.221,0.304
		c-0.216,0.111-0.324,0.285-0.324,0.526C84.095,69.456,84.245,69.659,84.545,69.759z M95.874,69.759
		c0.3,0.101,1.03,0.177,2.188,0.228c1.403,0.061,2.447,0.196,3.125,0.411c1.153,0.383,1.733,1.056,1.733,2.008
		c0,1.613-1.651,2.421-4.952,2.421c-3.3,0-4.951-0.808-4.951-2.419h2.406c0,0.243,0.109,0.42,0.324,0.533
		c0.372,0.201,1.111,0.304,2.221,0.304c1.112,0,1.853-0.103,2.222-0.304c0.215-0.113,0.325-0.29,0.325-0.535
		c0-0.294-0.14-0.492-0.417-0.593c-0.325-0.114-1.056-0.193-2.199-0.244c-1.419-0.061-2.46-0.197-3.124-0.41
		c-1.174-0.373-1.759-1.041-1.759-2.003c0-1.604,1.65-2.41,4.951-2.41c3.302,0,4.952,0.804,4.952,2.408h-2.405
		c0-0.238-0.11-0.415-0.325-0.526c-0.369-0.2-1.11-0.302-2.222-0.302c-1.111,0-1.85,0.102-2.221,0.304
		c-0.215,0.111-0.324,0.285-0.324,0.526C95.422,69.456,95.573,69.659,95.874,69.759z M106.91,74.805h-2.408v-8.063h2.408V74.805z
		 M106.911,65.148h-2.407v-1.58h2.407V65.148z M115.003,74.805c-6.161,0.33-6.154-0.403-6.154-2.919v-8.319h2.404v8.319
		c0,0.417-0.126,1.116,0.289,1.353c0.592,0.333,1.966,0.166,3.461,0.166V74.805z M121.451,75.325c-3.826,0-5.739-1.371-5.739-4.112
		c0-2.753,1.913-4.129,5.739-4.129c3.81,0,5.716,1.376,5.716,4.129C127.167,73.954,125.261,75.325,121.451,75.325z M134.713,68.324
		c-1.496,0-2.531,0.139-3.102,0.412c-0.415,0.202-0.625,0.515-0.625,0.939v5.131h-2.407v-5.132c0-1.953,2.047-2.93,6.134-2.93
		V68.324z"/>
</g>
<rect x="65.438" y="23.012" fill="none" width="72.395" height="54.971"/>
<g>
	<path fill="#1D1D1B" d="M68.508,26.737v33.409l66.066-0.002V26.737H68.508z M102.2,55.49
		c-13.396,0.194-19.515-11.079-19.515-11.079l0.046-0.14c0,0,4.635-13.675,20.768-14.046c0,0,12.146-0.556,19.424,11.172
		C122.921,41.397,118.1,55.258,102.2,55.49z"/>
	<path fill="#1D1D1B" d="M105.704,32.162c-14.011-2.902-20.777,8.099-20.777,8.099l-0.068,0.111c0,0,3.012,11.058,14.624,13.567
		c13.784,2.977,20.747-8.149,20.747-8.149C116.309,34.106,105.704,32.162,105.704,32.162z"/>
</g>
<path fill="#FFFFFF" d="M102.792,47.93c-3.37,0-5.724-1.944-5.724-4.728c0-2.786,2.354-4.735,5.724-4.735
	c1.044,0,2.011,0.19,2.867,0.564l0.134,0.059l-4.323,2.703c-0.4,0.248-0.678,0.637-0.772,1.087c-0.097,0.446-0.012,0.899,0.24,1.279
	c0.535,0.797,1.64,1.025,2.467,0.51c0,0,8.037-5.008,8.171-5.091c-1.666-2.615-5.021-4.237-8.783-4.237
	c-5.539,0-9.875,3.453-9.875,7.862s4.337,7.864,9.875,7.864c5.477,0,9.792-3.398,9.865-7.749h-4.149
	C108.438,46.035,106.103,47.93,102.792,47.93"/>
<rect x="65.438" y="23.012" fill="none" width="72.395" height="54.971"/>
</svg>
