<?xml version="1.0" encoding="utf-8"?>
<!-- Generator: Adobe Illustrator 16.0.4, SVG Export Plug-In . SVG Version: 6.00 Build 0)  -->
<!DOCTYPE svg PUBLIC "-//W3C//DTD SVG 1.1//EN" "http://www.w3.org/Graphics/SVG/1.1/DTD/svg11.dtd">
<svg version="1.1" id="Layer_1" xmlns="http://www.w3.org/2000/svg" xmlns:xlink="http://www.w3.org/1999/xlink" x="0px" y="0px"
	 width="200px" height="100px" viewBox="0 0 200 100" enable-background="new 0 0 200 100" xml:space="preserve">
<g id="Layer_1_1_">
</g>
<g id="bottle">
	<g>
		<path d="M142.935,68.272c0,0.776-0.616,1.407-1.378,1.407c-0.76,0-1.38-0.631-1.38-1.407c0-0.777,0.62-1.407,1.38-1.407
			C142.318,66.866,142.935,67.496,142.935,68.272 M141.557,67.109c-0.594,0-1.079,0.52-1.079,1.163c0,0.643,0.485,1.162,1.079,1.162
			c0.596,0,1.078-0.52,1.078-1.162C142.635,67.629,142.152,67.109,141.557,67.109"/>
		<path d="M141.778,68.39l0.086-0.009l0.079-0.025l0.067-0.039l0.06-0.042l0.006-0.008l0.027-0.034l0.024-0.037l0.012-0.021
			l0.029-0.081l0.006-0.046l0.007-0.099l-0.007-0.07l-0.006-0.054l-0.011-0.033l-0.021-0.052l-0.022-0.034l-0.026-0.038
			l-0.026-0.025l-0.04-0.033l-0.046-0.024l-0.039-0.017l-0.034-0.009l-0.153-0.033l-0.132-0.009h-0.589v1.556h0.25V68.41h0.005
			h0.238l0.403,0.663h0.288L141.778,68.39z M141.705,68.185l-0.421,0.008h-0.005v-0.454h0.005h0.306l0.118,0.008l0.111,0.025
			l0.044,0.028l0.034,0.034l0.021,0.05l0.008,0.104l-0.015,0.066l-0.027,0.051l-0.063,0.051l-0.024,0.01l-0.024,0.008
			L141.705,68.185z"/>
		<polygon points="74.195,49.646 82.024,69.459 84.743,69.459 92.611,49.646 89.167,49.646 83.57,64.155 78.328,49.646 		"/>
		<path d="M60.395,60.354l13.748-0.01l0.003-0.041c0-7.027-3.762-10.7-8.548-10.7c-5.347,0-9.038,4.195-9.032,9.953
			c0.003,5.861,2.843,10.404,9.297,10.404c3.281,0.003,5.498-1.004,7.823-2.528v-3.644c-2.138,1.668-4.842,3.204-7.171,3.204
			C62.818,66.992,60.395,64.595,60.395,60.354 M70.228,57.529l-9.71-0.002c0.396-3.179,2.193-4.993,5.074-4.993
			C68.246,52.534,70.025,54.544,70.228,57.529"/>
		<polygon points="98.212,69.459 98.213,49.646 94.76,49.646 94.751,69.459 		"/>
		<polygon points="98.212,47.764 98.213,44.32 94.76,44.32 94.751,47.764 		"/>
		<path d="M138.151,69.451l0.011-11.894c0-2.45-0.663-4.562-1.93-6.068c-1.262-1.504-3.134-2.379-5.468-2.379
			c-2.064,0-3.876,0.813-5.172,2.183V49.6h-3.452v19.859h3.562V57.365c0.009-2.769,1.941-4.818,4.629-4.825
			c2.822,0.021,4.283,2.017,4.305,4.9v12.01h-0.003L138.151,69.451z"/>
		<path d="M118.852,69.008c-0.262-0.68-0.51-2.023-0.53-2.968V55.25v-0.003v-0.005c0-1.85-0.657-3.422-1.963-4.512
			c-1.302-1.094-3.23-1.698-5.753-1.698h-0.004h-0.001h-0.003h-0.008h-0.002c-0.01-0.004-0.01-0.004-0.013-0.004
			c-4.033,0.004-6.928,1.817-7.891,4.765l-0.035,0.122l-0.054,0.157h3.886l0.06-0.086c0.881-1.244,2.593-1.606,4.011-1.606h0.013
			c3.115,0.019,4.342,1.121,4.343,2.509c0.002,0,0,0,0,0.01c-0.005,0.672-0.31,1.188-1.203,1.604
			c-0.894,0.414-2.37,0.685-4.626,0.795c-4.824,0.243-7.781,2.135-7.781,6.23c0,0.008,0,0.011-0.006,0.027h0.006v0.018
			c0.005,4.31,3.589,6.17,7.46,6.174h0.01h0.012c2.663,0,4.751-0.831,6.147-2.299l0.057-0.062l0.011,0.083
			c0.076,0.668,0.236,1.24,0.443,1.705l0.02,0.048l0.028,0.073h3.475L118.852,69.008 M105.017,64.723
			c-0.124-0.238-0.211-0.504-0.251-0.803v-0.012l0,0v-0.006c0,0,0-0.017-0.005-0.042c-0.012-0.09-0.017-0.192-0.021-0.299
			c0.025-1.51,0.745-2.844,4.757-3.137c1.906-0.137,3.831-0.337,5.17-1.155c0.061-0.041,0.123-0.079,0.184-0.123l0.059-0.041v2.499
			h0.001v0.038c-0.006,0.417-0.06,0.808-0.148,1.162c-0.043,0.159-0.095,0.316-0.15,0.467c-0.012,0.032-0.011,0.036-0.017,0.051
			c-0.238,0.603-0.604,1.111-1.063,1.525c-0.039,0.04-0.059,0.066-0.089,0.091c-0.025,0.02-0.054,0.04-0.092,0.068
			c-1.133,0.928-2.765,1.349-4.478,1.349C107.066,66.355,105.588,65.831,105.017,64.723"/>
		<polygon points="107.053,37.028 105.152,34.85 105.061,32.588 101.803,27.891 101.08,25.626 98.365,23.016 98.365,21.539 
			95.471,23.103 93.75,26.324 91.941,26.235 90.038,28.586 87.237,31.58 86.186,33.04 91.037,32.501 96.43,34.29 98.277,37.722 
			102.468,40.409 108.007,40.37 111.85,41.378 107.142,38.422 		"/>
		<polygon points="86.456,38.396 84.22,34.179 84.852,32.874 84.184,30.957 84.715,29.272 84.565,25.765 80.093,28.921 
			78.187,31.958 76.039,32.522 72.839,35.04 69.257,39.518 66.354,41.702 70.774,41.897 75.715,39.649 78.822,41.455 84.351,41.351 
			86.148,42.234 87.684,41.534 86.725,41.068 		"/>
		<path d="M123.974,39.329l-1.101-5.204l-2.663-3.891l-1.104-2.825l-2.66,1.5l-2.271,2.272l-3.857,0.539l-2.874,1.427l1.13,1.559
			l4.66,2.593l3.12,2.911l2.753,0.269l4.411,2.383h6.052c0,0-3.04-2.451-3.208-2.564C126.192,40.192,123.974,39.329,123.974,39.329"
			/>
	</g>
</g>
</svg>
