<?xml version="1.0" encoding="utf-8"?>
<!-- Generator: Adobe Illustrator 16.0.4, SVG Export Plug-In . SVG Version: 6.00 Build 0)  -->
<!DOCTYPE svg PUBLIC "-//W3C//DTD SVG 1.1//EN" "http://www.w3.org/Graphics/SVG/1.1/DTD/svg11.dtd">
<svg version="1.1" xmlns="http://www.w3.org/2000/svg" xmlns:xlink="http://www.w3.org/1999/xlink" x="0px" y="0px" width="200px"
	 height="100px" viewBox="0 0 200 100" enable-background="new 0 0 200 100" xml:space="preserve">
<g id="Layer_1">
</g>
<g id="Wacom_x5F_logo_x5F_ks.eps">
	<g>
		<g>
			<g>
				<g>
					<path fill="#1D1D1B" d="M130.498,70.486c-0.198,0.197-0.436,0.297-0.716,0.297c-0.279,0-0.517-0.1-0.714-0.297
						c-0.195-0.197-0.293-0.437-0.293-0.719c0-0.277,0.099-0.516,0.295-0.713c0.197-0.196,0.436-0.295,0.712-0.295
						c0.28,0,0.518,0.099,0.716,0.295c0.197,0.197,0.295,0.436,0.295,0.713C130.793,70.05,130.695,70.287,130.498,70.486z
						 M129.17,69.155c-0.169,0.169-0.254,0.374-0.254,0.615s0.085,0.448,0.252,0.619c0.169,0.171,0.373,0.256,0.614,0.256
						c0.242,0,0.446-0.085,0.614-0.256c0.169-0.171,0.254-0.378,0.254-0.619s-0.085-0.446-0.254-0.615
						c-0.168-0.172-0.374-0.257-0.614-0.257C129.544,68.898,129.339,68.983,129.17,69.155z M129.764,69.211
						c0.137,0,0.237,0.013,0.303,0.04c0.113,0.047,0.171,0.141,0.171,0.28c0,0.1-0.035,0.173-0.108,0.22
						c-0.037,0.023-0.091,0.043-0.16,0.054c0.088,0.014,0.151,0.051,0.191,0.109s0.06,0.115,0.06,0.172v0.08
						c0,0.027,0.001,0.055,0.004,0.083c0.001,0.03,0.005,0.05,0.009,0.06l0.007,0.014h-0.183c-0.002-0.004-0.004-0.008-0.005-0.012
						c0-0.003-0.001-0.008-0.002-0.013l-0.004-0.035v-0.089c0-0.128-0.035-0.213-0.104-0.255c-0.042-0.023-0.115-0.035-0.219-0.035
						h-0.153v0.438h-0.195v-1.111H129.764z M129.974,69.386c-0.05-0.028-0.129-0.041-0.235-0.041h-0.168v0.401h0.177
						c0.083,0,0.145-0.008,0.187-0.024c0.076-0.031,0.113-0.088,0.113-0.174C130.047,69.468,130.022,69.413,129.974,69.386z"/>
				</g>
			</g>
		</g>
		<g>
			<g>
				<g>
					<path fill="#1D1D1B" d="M82.897,68.769v7.205c0,1.275-0.715,1.896-2.188,1.896c-1.396,0-2.166-0.631-2.166-1.773v-7.327h-1.321
						v7.327c0,1.143-0.77,1.773-2.166,1.773c-1.474,0-2.189-0.62-2.189-1.896v-7.205h-1.321v7.377c0,1.835,1.353,3.021,3.45,3.021
						c1.396,0,2.242-0.348,2.886-1.179c0.644,0.831,1.49,1.179,2.886,1.179c2.095,0,3.449-1.187,3.449-3.021v-7.377H82.897z"/>
					<path fill="#1D1D1B" d="M109.598,68.696h-1.712c-2.438,0-3.546,1.615-3.546,3.118v4.232c0,1.503,1.105,3.12,3.534,3.12h1.736
						c2.43,0,3.537-1.617,3.537-3.12v-4.232C113.147,70.312,112.037,68.696,109.598,68.696z M111.824,75.876
						c0,1.266-0.828,1.993-2.274,1.993h-1.614c-1.467,0-2.275-0.707-2.275-1.993v-3.889c0-1.269,0.829-1.995,2.275-1.995h1.614
						c1.446,0,2.274,0.727,2.274,1.995V75.876z"/>
					<path fill="#1D1D1B" d="M121.047,69.897c-0.644-0.83-1.489-1.177-2.886-1.177c-2.096,0-3.451,1.186-3.451,3.021v7.376h1.323
						v-7.204c0-1.275,0.717-1.896,2.188-1.896c1.396,0,2.164,0.629,2.164,1.773v7.326h1.322v-7.326c0-1.145,0.769-1.773,2.164-1.773
						c1.474,0,2.19,0.62,2.19,1.896v7.204h1.32v-7.376c0-1.835-1.354-3.021-3.447-3.021
						C122.537,68.721,121.691,69.067,121.047,69.897z"/>
					<path fill="#1D1D1B" d="M99.215,68.696c-2.429,0-3.535,1.615-3.535,3.118v4.232c0,1.503,1.106,3.12,3.535,3.12h1.504
						c1.237,0,2.044-0.181,2.695-0.604l0.084-0.055l-0.757-1.101l-0.079,0.047c-0.486,0.293-1.1,0.414-2.115,0.414h-1.272
						c-1.465,0-2.274-0.707-2.274-1.993v-3.889c0-1.287,0.809-1.995,2.274-1.995h1.272c1.015,0,1.627,0.121,2.115,0.414l0.079,0.049
						l0.757-1.102l-0.084-0.056c-0.65-0.422-1.456-0.602-2.695-0.602H99.215z"/>
					<path fill="#1D1D1B" d="M89.428,68.696c-1.17,0-1.723,0.126-2.334,0.36l-0.104,0.042l0.659,1.177l0.081-0.033
						c0.451-0.185,0.94-0.25,1.872-0.25h0.991c1.445,0,2.274,0.727,2.274,1.995v3.889c0,1.266-0.83,1.993-2.274,1.993h-1.615
						c-1.482,0-2.201-0.601-2.201-1.835c0-1.227,0.719-1.821,2.201-1.821h2.251v-1.297h-2.313c-2.199,0-3.461,1.141-3.461,3.131
						c0,1.924,1.326,3.12,3.461,3.12h1.737c2.429,0,3.535-1.617,3.535-3.12v-4.232c0-1.503-1.106-3.118-3.535-3.118H89.428z"/>
				</g>
			</g>
		</g>
	</g>
	<path fill="#1D1D1B" d="M119.229,46.985c-0.638-0.554-2.03-0.999-3.307-1.358c0,0-6.403-1.841-9.744-2.801
		c3.173-0.308,8.968-0.876,9.783-1.002l0.175-0.025c0.784-0.11,2.416-0.338,3.786-1.793c0.97-1.029,1.63-2.667,1.63-4.664
		c0-1.571-0.409-3.366-1.397-5.26c-0.149-0.285-1.53-2.824-4.21-4.249c-2.933-1.56-5.746-1.082-7.72,1.313
		c-0.594,0.721-3.857,5.55-5.782,8.412c0.775-2.652,2.001-6.849,2.001-6.849c0.253-0.892,0.45-1.648,0.45-2.319
		c0-0.113-0.005-0.224-0.018-0.333c-0.078-0.722-0.483-1.384-1.168-1.914c-1.434-1.105-3.94-1.553-6.543-1.168
		c-0.645,0.096-3.95,0.675-5.669,2.71c-0.641,0.759-0.841,1.501-0.841,2.143c0,0.789,0.303,1.427,0.461,1.761l0.047,0.102
		c0.195,0.433,0.518,0.952,1.225,2.089c0,0,0.866,1.419,1.731,2.839c-2.357-2.352-5.875-5.85-7.424-7.338
		c-0.397-0.383-0.594-0.546-0.948-0.773c-1.624-1.01-4.593,0.624-6.905,3.8c-1.492,2.05-2.297,4.169-2.297,5.731
		c0,0.901,0.269,1.616,0.829,2.025c0.427,0.327,1.349,0.648,2.818,0.983c0,0,11.417,2.533,15.425,3.422
		c-2.039,0.679-5.753,1.923-6.588,2.267c-1.625,0.668-2.81,1.512-3.521,2.51c-0.818,1.09-1.249,2.418-1.249,3.811
		c0,0.327,0.024,0.657,0.072,0.989c0.281,1.942,1.383,3.758,3.025,4.982c1.64,1.221,3.858,1.749,5.933,1.412
		c1.691-0.274,3.073-1.073,3.893-2.249c0.824-1.182,1.212-2.483,1.394-3.365c0.121-0.476,0.915-4.825,1.31-7.002
		c1.511,3.27,5.834,12.595,6.402,13.51l0.099,0.168c1.706,2.972,4.186,3.93,7.369,2.846c2.88-0.979,4.771-3.442,5.283-4.174
		c1.474-2.102,2.214-4.416,2.214-6.466C121.251,49.757,120.579,48.045,119.229,46.985z M108.902,50.929
		c-2.179,3.027-2.654,6.58-1.417,8.863c-0.181-0.266-0.32-0.506-0.42-0.681l-0.112-0.19c-0.52-0.837-4.726-9.885-6.877-14.553
		l-0.521-1.131l-0.221,1.226c-0.473,2.617-1.399,7.696-1.523,8.188c-0.018,0.087-0.045,0.171-0.065,0.257
		c0.233-2.12-0.677-4.404-2.592-5.938c-2.081-1.665-4.768-1.974-6.875-1.016c0.323-0.173,0.673-0.337,1.049-0.492
		c1.114-0.458,7.819-2.672,7.886-2.695l1.354-0.447l-18.201-4.038c-0.863-0.197-1.438-0.369-1.825-0.51
		c1.402,0.187,3.628-1.314,5.391-3.758c2.025-2.808,2.674-5.806,1.493-6.777c0.125,0.087,0.377,0.275,0.726,0.61
		c2.415,2.32,9.658,9.569,9.731,9.643l2.326,2.329l-5.154-8.453c-0.688-1.106-1.002-1.611-1.176-1.997l-0.054-0.116
		c-0.124-0.26-0.307-0.65-0.365-1.121c0.423,1.829,3.401,2.913,6.804,2.433c2.967-0.418,5.291-1.894,5.774-3.507
		c-0.081,0.47-0.216,0.969-0.349,1.436l-3.427,11.727l1.418-2.119c0.063-0.095,6.342-9.475,7.15-10.457
		c0.033-0.041,0.071-0.083,0.107-0.125c-1.565,2.104-1.581,5.6,0.183,8.723c1.919,3.401,5.314,5.227,8.066,4.542
		c-0.452,0.134-0.858,0.194-1.16,0.236l-0.186,0.027c-1.084,0.167-11.684,1.184-11.79,1.194l-2.058,0.197l13.717,3.943
		c0.329,0.093,0.86,0.244,1.398,0.43C114.513,46.211,111.155,47.798,108.902,50.929z"/>
</g>
</svg>
