<?xml version="1.0" encoding="utf-8"?>
<!-- Generator: Adobe Illustrator 16.0.4, SVG Export Plug-In . SVG Version: 6.00 Build 0)  -->
<!DOCTYPE svg PUBLIC "-//W3C//DTD SVG 1.1//EN" "http://www.w3.org/Graphics/SVG/1.1/DTD/svg11.dtd">
<svg version="1.1" xmlns="http://www.w3.org/2000/svg" xmlns:xlink="http://www.w3.org/1999/xlink" x="0px" y="0px" width="200px"
	 height="100px" viewBox="0 0 200 100" enable-background="new 0 0 200 100" xml:space="preserve">
<g id="canon">
	<path fill="#1D1D1B" d="M-641,146.564v-22.086h4.577c3.302,0,5.697,0.264,7.188,0.795c2.143,0.75,3.816,2.051,5.01,3.904
		c1.22,1.85,1.82,4.057,1.82,6.619c0,2.213-0.48,4.162-1.441,5.842c-0.948,1.682-2.191,2.922-3.721,3.721
		c-1.519,0.801-3.661,1.205-6.411,1.205H-641z M-638.886,144.477h2.552c3.052,0,5.168-0.189,6.349-0.57
		c1.662-0.543,2.97-1.512,3.921-2.914c0.949-1.414,1.426-3.133,1.426-5.164c0-2.133-0.516-3.951-1.551-5.465
		c-1.029-1.512-2.463-2.547-4.303-3.107c-1.381-0.42-3.662-0.629-6.836-0.629h-1.558V144.477z"/>
	<path fill="#1D1D1B" d="M-604.713,141.143l1.767,0.932c-0.573,1.141-1.25,2.061-2.01,2.762c-0.762,0.701-1.613,1.236-2.566,1.607
		c-0.947,0.359-2.027,0.541-3.226,0.541c-2.667,0-4.749-0.873-6.253-2.611c-1.493-1.754-2.244-3.73-2.244-5.934
		c0-2.07,0.635-3.918,1.901-5.541c1.609-2.059,3.769-3.092,6.475-3.092c2.782,0,5.002,1.057,6.664,3.17
		c1.183,1.49,1.783,3.35,1.807,5.584h-14.688c0.039,1.902,0.644,3.463,1.816,4.686c1.172,1.209,2.617,1.816,4.341,1.816
		c0.828,0,1.634-0.143,2.41-0.436c0.795-0.291,1.466-0.676,2.018-1.154C-605.95,142.992-605.354,142.213-604.713,141.143
		 M-604.713,136.744c-0.284-1.121-0.69-2.018-1.237-2.689c-0.523-0.67-1.23-1.209-2.113-1.619c-0.883-0.412-1.807-0.617-2.778-0.617
		c-1.602,0-2.977,0.518-4.13,1.547c-0.839,0.75-1.475,1.877-1.905,3.379H-604.713z"/>
	<rect x="-598.799" y="123.922" fill="#1D1D1B" width="2.103" height="22.643"/>
	<path fill="#1D1D1B" d="M-591.594,123.502c0.479,0,0.889,0.17,1.231,0.51s0.509,0.752,0.509,1.23c0,0.473-0.166,0.875-0.509,1.219
		c-0.343,0.34-0.752,0.508-1.231,0.508c-0.47,0-0.878-0.168-1.215-0.508c-0.343-0.344-0.509-0.746-0.509-1.219
		c0-0.479,0.166-0.891,0.509-1.23C-592.472,123.672-592.063,123.502-591.594,123.502 M-592.643,130.227h2.117v16.338h-2.117V130.227
		z"/>
	<path fill="#1D1D1B" d="M-572.104,130.227h2.115v13.02c0,2.291-0.199,3.967-0.596,5.027c-0.554,1.504-1.518,2.658-2.872,3.469
		c-1.363,0.811-2.998,1.217-4.912,1.217c-1.399,0-2.663-0.199-3.784-0.6c-1.11-0.393-2.018-0.922-2.719-1.594
		c-0.699-0.66-1.345-1.631-1.937-2.912h2.286c0.618,1.08,1.419,1.879,2.402,2.404c0.981,0.52,2.197,0.779,3.65,0.779
		c1.43,0,2.639-0.271,3.615-0.809c0.994-0.533,1.701-1.205,2.114-2.014c0.421-0.812,0.636-2.117,0.636-3.92v-0.838
		c-0.798,0.998-1.756,1.768-2.898,2.309c-1.144,0.533-2.353,0.799-3.633,0.799c-1.503,0-2.915-0.373-4.235-1.113
		c-1.325-0.75-2.342-1.756-3.064-3.018c-0.718-1.262-1.082-2.646-1.082-4.158s0.381-2.918,1.126-4.221
		c0.757-1.307,1.789-2.346,3.109-3.107c1.336-0.76,2.733-1.141,4.201-1.141c1.226,0,2.364,0.256,3.413,0.768
		c1.06,0.5,2.078,1.33,3.063,2.49V130.227z M-578.303,131.834c-1.19,0-2.298,0.291-3.324,0.871
		c-1.018,0.568-1.818,1.367-2.397,2.389c-0.586,1.01-0.872,2.105-0.872,3.287c0,1.793,0.603,3.271,1.8,4.441
		c1.204,1.176,2.761,1.76,4.671,1.76c1.934,0,3.483-0.58,4.655-1.742c1.182-1.162,1.768-2.686,1.768-4.58
		c0-1.23-0.266-2.326-0.81-3.287c-0.539-0.969-1.306-1.738-2.295-2.297C-576.101,132.113-577.167,131.834-578.303,131.834"/>
	<path fill="#1D1D1B" d="M-565.482,123.922h2.104v9.236c0.848-1.125,1.784-1.957,2.805-2.51c1.022-0.561,2.125-0.842,3.315-0.842
		c1.221,0,2.306,0.311,3.247,0.93c0.947,0.621,1.647,1.457,2.101,2.51c0.447,1.037,0.674,2.676,0.674,4.908v8.41h-2.099v-7.793
		c0-1.881-0.077-3.139-0.226-3.77c-0.26-1.082-0.74-1.891-1.431-2.432c-0.679-0.549-1.573-0.826-2.683-0.826
		c-1.271,0-2.416,0.42-3.424,1.26c-0.999,0.842-1.662,1.883-1.982,3.125c-0.199,0.801-0.298,2.279-0.298,4.443v5.992h-2.104V123.922
		z"/>
	<polygon fill="#1D1D1B" points="-544.897,124.16 -542.784,124.16 -542.784,130.227 -539.449,130.227 -539.449,132.029 
		-542.784,132.029 -542.784,146.564 -544.897,146.564 -544.897,132.029 -547.77,132.029 -547.77,130.227 -544.897,130.227 	"/>
	<path fill="#1D1D1B" d="M-535.578,123.502c0.48,0,0.895,0.17,1.237,0.51c0.336,0.34,0.508,0.752,0.508,1.23
		c0,0.473-0.172,0.875-0.508,1.219c-0.343,0.34-0.757,0.508-1.237,0.508c-0.47,0-0.873-0.168-1.215-0.508
		c-0.345-0.344-0.508-0.746-0.508-1.219c0-0.479,0.163-0.891,0.508-1.23C-536.451,123.672-536.048,123.502-535.578,123.502
		 M-536.627,130.227h2.12v16.338h-2.12V130.227z"/>
	<path fill="#1D1D1B" d="M-530.157,130.227h2.102v2.932c0.843-1.125,1.774-1.957,2.797-2.51c1.019-0.561,2.126-0.842,3.329-0.842
		c1.227,0,2.303,0.311,3.246,0.93c0.947,0.621,1.646,1.457,2.099,2.51c0.453,1.049,0.674,2.688,0.674,4.908v8.41h-2.088v-7.793
		c0-1.881-0.076-3.139-0.237-3.77c-0.248-1.082-0.723-1.891-1.407-2.432c-0.695-0.549-1.597-0.826-2.708-0.826
		c-1.268,0-2.41,0.42-3.422,1.26c-0.998,0.842-1.662,1.883-1.98,3.125c-0.202,0.811-0.302,2.291-0.302,4.443v5.992h-2.102V130.227z"
		/>
	<path fill="#1D1D1B" d="M-497.336,130.227h2.12v13.02c0,2.291-0.204,3.967-0.605,5.027c-0.549,1.504-1.505,2.658-2.872,3.469
		c-1.354,0.811-2.988,1.217-4.908,1.217c-1.398,0-2.657-0.199-3.778-0.6c-1.113-0.393-2.022-0.922-2.717-1.594
		c-0.704-0.66-1.348-1.631-1.938-2.912h2.286c0.618,1.08,1.419,1.879,2.396,2.404c0.979,0.52,2.197,0.779,3.649,0.779
		c1.427,0,2.64-0.271,3.622-0.809c0.988-0.533,1.695-1.205,2.115-2.014c0.42-0.812,0.63-2.117,0.63-3.92v-0.838
		c-0.791,0.998-1.757,1.768-2.895,2.309c-1.148,0.533-2.356,0.799-3.638,0.799c-1.497,0-2.91-0.373-4.229-1.113
		c-1.326-0.75-2.347-1.756-3.064-3.018c-0.724-1.262-1.082-2.646-1.082-4.158s0.375-2.918,1.126-4.221
		c0.75-1.307,1.783-2.346,3.108-3.107c1.331-0.76,2.732-1.141,4.201-1.141c1.222,0,2.357,0.256,3.41,0.768
		c1.063,0.5,2.084,1.33,3.062,2.49V130.227z M-503.537,131.834c-1.19,0-2.297,0.291-3.319,0.871
		c-1.023,0.568-1.824,1.367-2.401,2.389c-0.58,1.01-0.872,2.105-0.872,3.287c0,1.793,0.604,3.271,1.806,4.441
		c1.195,1.176,2.755,1.76,4.665,1.76c1.933,0,3.485-0.58,4.655-1.742c1.181-1.162,1.77-2.686,1.77-4.58
		c0-1.23-0.269-2.326-0.809-3.287c-0.541-0.969-1.303-1.738-2.294-2.297C-501.328,132.113-502.395,131.834-503.537,131.834"/>
	<polygon fill="#1D1D1B" points="-483.599,124.479 -481.043,124.479 -475.4,133.574 -469.846,124.479 -467.294,124.479 
		-474.293,136.008 -474.293,146.564 -476.466,146.564 -476.466,136.008 	"/>
	<path fill="#1D1D1B" d="M-456.272,129.807c2.512,0,4.594,0.914,6.244,2.734c1.501,1.66,2.252,3.627,2.252,5.898
		c0,2.283-0.795,4.279-2.382,5.99c-1.588,1.703-3.625,2.555-6.114,2.555c-2.503,0-4.552-0.852-6.142-2.555
		c-1.585-1.711-2.373-3.707-2.373-5.99c0-2.262,0.751-4.221,2.252-5.883C-460.884,130.723-458.797,129.807-456.272,129.807
		 M-456.272,131.863c-1.739,0-3.236,0.646-4.486,1.938c-1.256,1.293-1.88,2.852-1.88,4.686c0,1.182,0.287,2.281,0.854,3.301
		c0.574,1.023,1.339,1.814,2.314,2.375c0.968,0.551,2.037,0.822,3.197,0.822c1.158,0,2.225-0.271,3.196-0.822
		c0.973-0.561,1.745-1.352,2.313-2.375c0.568-1.02,0.855-2.119,0.855-3.301c0-1.834-0.633-3.393-1.894-4.686
		C-453.049,132.51-454.539,131.863-456.272,131.863"/>
	<path fill="#1D1D1B" d="M-444.137,130.227h2.113v7.631c0,1.861,0.101,3.143,0.296,3.84c0.302,1.002,0.875,1.791,1.716,2.371
		c0.85,0.582,1.859,0.873,3.029,0.873c1.171,0,2.165-0.283,2.978-0.84c0.815-0.572,1.387-1.316,1.691-2.236
		c0.213-0.633,0.319-1.969,0.319-4.008v-7.631h2.146v8.02c0,2.25-0.265,3.945-0.795,5.088c-0.524,1.143-1.314,2.039-2.375,2.689
		c-1.049,0.641-2.367,0.961-3.965,0.961c-1.59,0-2.921-0.32-3.988-0.961c-1.062-0.65-1.856-1.551-2.394-2.703
		c-0.52-1.162-0.772-2.904-0.772-5.227V130.227z"/>
	<path fill="#1D1D1B" d="M-407.299,124.479l10.304,22.086h-2.383l-3.459-7.266h-9.518l-3.451,7.266h-2.468l10.434-22.086H-407.299z
		 M-407.572,129.16l-3.795,8.004h7.554L-407.572,129.16z"/>
	<rect x="-394.239" y="123.922" fill="#1D1D1B" width="2.108" height="22.643"/>
	<polygon fill="#1D1D1B" points="-389.973,130.227 -387.812,130.227 -382.812,142.09 -377.57,130.227 -377.195,130.227 
		-371.973,142.09 -366.88,130.227 -364.691,130.227 -371.778,146.564 -372.185,146.564 -377.37,134.867 -382.617,146.564 
		-383.009,146.564 	"/>
	<path fill="#1D1D1B" d="M-345.941,130.227v16.338h-2.066v-2.811c-0.884,1.07-1.872,1.877-2.977,2.418
		c-1.088,0.541-2.286,0.812-3.586,0.812c-2.311,0-4.29-0.838-5.931-2.508c-1.631-1.684-2.45-3.723-2.45-6.125
		c0-2.352,0.831-4.365,2.48-6.039c1.651-1.67,3.637-2.506,5.954-2.506c1.353,0,2.562,0.287,3.644,0.855
		c1.088,0.572,2.043,1.428,2.865,2.568v-3.004H-345.941z M-354.348,131.834c-1.171,0-2.253,0.291-3.24,0.871
		c-0.988,0.568-1.78,1.375-2.369,2.416c-0.587,1.041-0.872,2.145-0.872,3.305c0,1.15,0.293,2.252,0.889,3.301
		c0.585,1.053,1.375,1.875,2.369,2.463c0.999,0.582,2.068,0.873,3.213,0.873c1.153,0,2.24-0.291,3.275-0.873
		c1.026-0.58,1.821-1.367,2.373-2.354c0.555-0.992,0.832-2.109,0.841-3.35c0-1.895-0.629-3.473-1.877-4.746
		C-350.99,132.471-352.525,131.834-354.348,131.834"/>
	<polygon fill="#1D1D1B" points="-342.963,130.227 -340.741,130.227 -335.127,142.811 -329.678,130.227 -327.437,130.227 
		-337.187,152.539 -339.405,152.539 -336.254,145.334 	"/>
	<path fill="#1D1D1B" d="M-316.508,132.016l-1.354,1.396c-1.121-1.094-2.222-1.637-3.286-1.637c-0.677,0-1.269,0.223-1.762,0.676
		c-0.479,0.447-0.716,0.975-0.716,1.574c0,0.533,0.198,1.037,0.602,1.518c0.397,0.492,1.238,1.066,2.523,1.727
		c1.562,0.811,2.623,1.592,3.18,2.34c0.553,0.764,0.826,1.619,0.826,2.568c0,1.344-0.476,2.479-1.413,3.41
		c-0.939,0.932-2.113,1.396-3.526,1.396c-0.938,0-1.839-0.207-2.699-0.619c-0.855-0.408-1.563-0.975-2.115-1.695l1.312-1.502
		c1.074,1.213,2.21,1.816,3.409,1.816c0.841,0,1.563-0.27,2.147-0.809c0.598-0.541,0.891-1.176,0.891-1.908
		c0-0.6-0.195-1.133-0.585-1.605c-0.396-0.459-1.272-1.037-2.65-1.742c-1.465-0.76-2.47-1.51-2.994-2.25
		c-0.535-0.74-0.795-1.584-0.795-2.537c0-1.242,0.419-2.273,1.259-3.092c0.851-0.822,1.919-1.234,3.208-1.234
		C-319.538,129.807-318.031,130.545-316.508,132.016"/>
</g>
<g id="Layer_1">
	<g>
		<polygon points="130.543,70.888 133.304,70.888 133.304,61.182 130.543,61.182 130.543,70.888 		"/>
		<polygon points="114.894,55.991 108.759,55.991 108.759,54.038 114.404,54.038 114.404,52.106 108.759,52.106 108.759,50.361 
			114.894,50.361 114.894,48.322 106.127,48.322 106.127,58.028 114.894,58.028 114.894,55.991 		"/>
		<path d="M140.629,65.343c-2.166-0.884-2.739-0.842-3.015-1.262c-0.339-0.756,0.554-1.092,1.614-1.029
			c0.317,0.021,0.956,0.062,2.568,0.295V61.16c-0.807-0.188-1.784-0.294-2.908-0.294c-1.592-0.041-4.417,0.379-4.289,3.195
			c0.147,1.762,1.423,2.204,3.204,2.793c1.532,0.482,1.85,0.608,1.785,1.303c-0.128,0.715-0.977,0.756-1.508,0.777
			c-1.02,0-2.44-0.212-3.438-0.525v2.353c0,0,1.846,0.378,3.546,0.399c1.272,0,4.074-0.42,4.308-3.068
			C142.54,66.329,141.457,65.697,140.629,65.343"/>
		<path d="M100.373,54.458c-0.09,0.225-0.154,0.441-0.198,0.673c-0.051-0.231-0.124-0.448-0.212-0.677l-2.471-6.13H94.49
			l4.204,9.707h2.929l4.205-9.707h-2.982L100.373,54.458L100.373,54.458z"/>
		<polygon points="114.502,67.901 110.373,61.182 106.93,61.182 106.93,70.888 109.534,70.888 109.534,64.146 113.642,70.888 
			117.081,70.888 117.081,61.182 114.502,61.182 114.502,67.901 		"/>
		<path d="M118.759,50.361h2.634c0.508,0,1.357,0.041,1.357,1.155c0,0.968-0.701,1.136-1.379,1.136h-2.335l3.714,5.379h3.356
			l-3.27-3.969c0.997,0.04,2.567-0.759,2.611-2.587c0.062-2.457-1.17-3.153-3.06-3.153h-6.369v9.708h2.739V50.361L118.759,50.361z"
			/>
		<polygon points="96.995,70.888 105.764,70.888 105.764,68.849 99.628,68.849 99.628,66.896 105.275,66.896 105.275,64.963 
			99.628,64.963 99.628,63.22 105.764,63.22 105.764,61.18 96.995,61.18 96.995,70.888 		"/>
		<path d="M132.104,58.03v-3.5l4.393-6.207h-3.185l-2.275,3.617c-0.213,0.337-0.303,0.574-0.303,0.574s-0.09-0.239-0.303-0.574
			l-2.229-3.617h-3.164l4.327,6.207v3.5H132.104L132.104,58.03z"/>
		<path d="M89.669,54.019l0.999-2.501c0,0,0.19-0.504,0.317-1.008c0.148,0.481,0.339,1.008,0.339,1.008l0.978,2.501H89.669
			L89.669,54.019z M89.244,48.324l-4.12,9.707h2.931l0.828-2.08h4.162l0.827,2.08h2.93l-4.097-9.707H89.244L89.244,48.324z"/>
		<polygon points="126.285,67.901 122.159,61.182 118.718,61.182 118.718,70.888 121.317,70.888 121.318,64.146 125.425,70.888 
			128.866,70.888 128.866,61.182 126.285,61.182 126.285,67.901 		"/>
		<polygon points="163.167,61.18 163.167,67.901 159.041,61.18 155.598,61.18 155.598,70.888 158.2,70.888 158.2,64.146 
			162.306,70.888 165.749,70.888 165.749,61.18 163.167,61.18 		"/>
		<path d="M77.099,64.48c-0.532,2.206-2.909,3.572-5.117,2.876c-1.233-0.397-1.911-1.236-2.592-2.33l-10-17.312l1.361-2.353
			l10.7,18.553c0.51,0.836,0.85,1.131,1.274,1.257c0.849,0.295,1.912-0.271,2.144-1.197c0.128-0.44,0.044-0.901-0.381-1.659
			L62.724,41.936c0.361-0.797,0.828-1.68,0.978-2.877l12.78,22.143C77.025,62.142,77.418,63.114,77.099,64.48 M42.234,67.548
			c-1.253-0.062-2.124-0.146-3.206-1.031c-1.785-1.658-1.785-4.221-0.17-5.777c0.785-0.756,1.869-1.195,3.185-1.217h20.215
			l1.357,2.33H41.809c-0.425,0-0.998,0.189-1.338,0.506c-0.68,0.672-0.637,1.766,0.065,2.416c0.339,0.338,0.827,0.462,1.273,0.462
			H65.57c0.53,0.841,0.869,1.45,1.909,2.312H42.234L42.234,67.548z M57.438,51.055l3.013,5.147h-5.945L57.438,51.055L57.438,51.055z
			 M53.531,34.666c0.828-1.449,1.613-2.037,2.59-2.31c2.272-0.694,4.502,0.608,5.137,2.752c0.277,0.965,0.17,2.038-0.593,3.487
			L50.556,56.181H47.86l10.85-18.844c0.341-0.632,0.446-1.135,0.341-1.599c-0.255-0.903-1.145-1.512-2.229-1.196
			c-0.425,0.146-0.743,0.398-1.168,1.112L43.954,56.14h-0.383c-0.721,0.02-1.593,0.127-2.461,0.42L53.531,34.666L53.531,34.666z
			 M79.263,59.249L65.314,35.045c-0.956-1.701-0.935-1.596-1.188-1.996c-0.746-1.324-1.828-2.583-3.017-3.276
			c-1.486-0.862-3.587-1.303-5.839-0.695c-1.954,0.545-3.376,1.702-4.947,4.371l-1.891,3.256L35.759,59.102
			c-0.786,1.513-0.617,1.198-0.893,1.765c-0.381,1.05-0.615,1.66-0.615,2.815c0,3.403,2.673,7.163,7.961,7.185
			c0.743,0.021-0.317,0.021,1.528,0.043c2.718,0.021,21.999,0,27.498,0c0.85-0.043,0.595,0.021,1.656-0.086
			c3.737-0.23,6.54-1.867,7.581-5.396C81.133,62.947,80.41,61.224,79.263,59.249"/>
		<path d="M90.348,68.725h-2.207v-5.378h2.27c1.57,0,2.848,0.63,2.848,2.688C93.259,68.325,91.941,68.725,90.348,68.725
			 M91.453,61.18h-5.989v9.708h6.055c3.415,0,4.435-2.584,4.479-4.832C96.019,64.019,94.956,61.18,91.453,61.18"/>
		<path d="M148.762,68.768c-1.953,0-2.995-1.114-2.995-2.88c0-1.764,1.042-2.898,2.995-2.898c1.975,0,2.997,1.135,2.997,2.898
			C151.759,67.653,150.736,68.768,148.762,68.768 M148.742,60.741c-3.634-0.083-5.649,1.971-5.67,5.231
			c-0.023,3.256,2.036,5.294,5.689,5.23c3.652,0.063,5.711-1.975,5.69-5.23C154.452,62.712,152.414,60.658,148.742,60.741"/>
	</g>
</g>
<g id="bottle">
</g>
</svg>
