<?xml version="1.0" encoding="utf-8"?>
<!-- Generator: Adobe Illustrator 16.0.4, SVG Export Plug-In . SVG Version: 6.00 Build 0)  -->
<!DOCTYPE svg PUBLIC "-//W3C//DTD SVG 1.1//EN" "http://www.w3.org/Graphics/SVG/1.1/DTD/svg11.dtd">
<svg version="1.1" id="Layer_1" xmlns="http://www.w3.org/2000/svg" xmlns:xlink="http://www.w3.org/1999/xlink" x="0px" y="0px"
	 width="200px" height="30.77px" viewBox="0 0 200 30.77" enable-background="new 0 0 200 30.77" xml:space="preserve">
<g>
	<path fill="#424242" d="M88.598,1.913v3.82h-17.61c0,0-1.496-0.078-1.496,1.578v6.174h15.204v3.71H69.464v6.123
		c0,0-0.188,1.627,1.711,1.627H88.57v3.77H70.534c0,0-4.625,0.35-4.97-6.119V6.857c0,0,0.026-4.917,6.201-4.917
		C77.936,1.939,88.598,1.913,88.598,1.913"/>
	<rect x="159.438" y="1.917" fill="#424242" width="3.742" height="26.798"/>
	<path fill="#F48120" d="M107.312,1.925L92.365,28.717h4.088l9.74-17.333c0,0,1.104-2.123,2.244-0.02
		c1.143,2.104,9.739,17.353,9.739,17.353h4.052L107.312,1.925z"/>
	<path fill="#424242" d="M153.398,10.266V1.882h-3.797v7.301c0,2.202-1.804,3.988-4.026,3.988h-11.188
		c-2.221,0-4.025-1.788-4.025-3.988V1.882h-3.846v8.385c0,2.605,1.979,4.749,4.524,5.049c-2.546,0.299-4.524,2.443-4.524,5.044
		v8.383h3.795v-7.297c0-2.205,1.806-3.992,4.029-3.992h11.188c2.222,0,4.025,1.787,4.025,3.992v7.297h3.848V20.36
		c0-2.604-1.979-4.746-4.525-5.044C151.422,15.015,153.398,12.872,153.398,10.266"/>
	<path fill="#424242" d="M192.777,8.528l3.67-0.001c0,0,0.973-6.615-5.426-6.609h-16.511c0,0-4.448-0.143-4.546,5.022v5.545
		c0,0-0.082,4.58,5.111,4.701h16.134c0,0,1.481-0.039,1.481,1.709v4.922c0,0-0.08,1.307-1.481,1.307h-16.437
		c0,0-1.162-0.322-1.203-1.549c-0.038-1.227,0-1.889,0-1.889h-3.627v2.795c0,0,0.18,4.236,5.11,4.236h16.757
		c0,0,4.566,0.02,4.566-5.084v-6.146c0,0-0.259-3.917-5.189-3.917h-16.137c0,0-1.48,0.021-1.48-1.849V6.979
		c0,0,0.117-1.407,1.723-1.407h15.893c0,0,1.463,0,1.522,1.505C192.739,7.741,192.777,8.528,192.777,8.528"/>
	<path fill="#424242" d="M59.455,13.357c-0.023-5.104,0-6.546,0-6.546s-0.238-4.839-5.958-4.839c-5.718,0-18.982,0.026-18.982,0.026
		v26.802h3.795V18.594h10.353l5.609,10.207h4.864l-5.558-10.156C53.578,18.645,59.482,18.457,59.455,13.357 M55.514,8.398v3.741
		c0,2.7-1.952,2.62-1.952,2.62H38.28V5.754l15.283-0.026C55.607,5.889,55.514,8.398,55.514,8.398"/>
	<path fill="#424242" d="M28.448,22.022h-3.723c-0.022,3.465-2.064,3.158-2.064,3.158H9.153c-1.864,0-1.904-2.734-1.904-2.734
		L7.229,8.372c0,0,0.04-2.733,1.903-2.733h13.509c0,0,2.043-0.302,2.062,3.161h3.726c0,0,0.965-6.866-5.889-6.866H8.331
		c0,0-4.831-0.245-4.831,6.764c0,7.01,0.022,9.829,0.022,13.422c0,7.01,4.831,6.768,4.831,6.768h14.209
		C29.415,28.887,28.448,22.022,28.448,22.022"/>
</g>
</svg>
